<?xml version="1.0" encoding="UTF-8"?>
<svg id="Layer_1" xmlns="http://www.w3.org/2000/svg" version="1.1" viewBox="0 0 800 800">
  <!-- Generator: Adobe Illustrator 29.6.1, SVG Export Plug-In . SVG Version: 2.1.1 Build 9)  -->
  <defs>
    <style>
      .st0 {
        fill: #d4d4d4;
      }
    </style>
  </defs>
  <path class="st0" d="M634.29,702.86H182.86c-57.14,0-97.14-45.71-97.14-97.14v-182.86h605.71c17.14,0,28.57,11.43,28.57,28.57v160c0,51.43-40,91.43-85.71,91.43h0Z"/>
  <path d="M594.29,731.43H205.71c-80,0-142.86-62.86-142.86-142.86V228.57c0-80,62.86-142.86,142.86-142.86h394.29c80,0,142.86,62.86,142.86,142.86v360c-5.71,74.29-68.57,142.86-148.57,142.86h0ZM205.71,125.71c-57.14,0-102.86,45.71-102.86,102.86v360c0,57.14,45.71,102.86,102.86,102.86h394.29c57.14,0,102.86-45.71,102.86-102.86V228.57c0-57.14-45.71-102.86-102.86-102.86H205.71Z"/>
  <path class="st0" d="M571.43,200v-51.43c0-57.14-34.29-102.86-80-102.86h-188.57c-45.71,0-80,45.71-80,102.86v51.43h348.57Z"/>
  <path d="M571.43,222.86H205.71v-74.29c0-68.57,45.71-125.71,102.86-125.71h188.57c57.14,0,102.86,57.14,102.86,125.71v68.57l-28.57,5.71h0ZM245.71,177.14h314.29v-28.57c0-45.71-28.57-80-62.86-80h-194.29c-34.29,0-62.86,34.29-62.86,80v28.57h5.71Z"/>
  <path d="M651.43,222.86H148.57c-11.43,0-22.86-11.43-22.86-22.86s11.43-22.86,22.86-22.86h502.86c11.43,0,22.86,11.43,22.86,22.86s-11.43,22.86-22.86,22.86h0Z"/>
  <path d="M296,426.69l123.6,92.29-23.89,32-123.71-92.23,24-32.06Z"/>
  <path d="M365.83,526.8l204.57-215.54,28.97,27.54-204.57,215.54-28.97-27.54Z"/>
</svg>