<?xml version="1.0" encoding="UTF-8"?>
<svg id="file-folder-done" xmlns="http://www.w3.org/2000/svg" version="1.1" viewBox="0 0 800 800">
  <!-- Generator: Adobe Illustrator 29.6.1, SVG Export Plug-In . SVG Version: 2.1.1 Build 9)  -->
  <defs>
    <style>
      .st0 {
        fill: #d4d4d4;
      }
    </style>
  </defs>
  <path id="secondary" class="st0" d="M600,66.67H200c-36.82,0-66.67,29.85-66.67,66.67v233.33c0,18.41,14.92,33.33,33.33,33.33h466.67c18.41,0,33.33-14.92,33.33-33.33v-233.33c0-36.82-29.85-66.67-66.67-66.67Z"/>
  <path id="primary" d="M666.67,333.33h-286.67l-56.67-57c-6.21-6.16-14.59-9.63-23.33-9.67h-166.67c-36.82,0-66.67,29.85-66.67,66.67v333.33c0,36.82,29.85,66.67,66.67,66.67h533.33c36.82,0,66.67-29.85,66.67-66.67v-266.67c0-36.82-29.85-66.67-66.67-66.67Z"/>
  <path id="secondary-2" class="st0" d="M366.67,633.33c-8.86.05-17.38-3.43-23.67-9.67l-66.67-66.67c-13.07-13.07-13.07-34.26,0-47.33s34.26-13.07,47.33,0l43,43.33,109.67-110c13.07-13.07,34.26-13.07,47.33,0,13.07,13.07,13.07,34.26,0,47.33l-133.33,133.33c-6.29,6.24-14.81,9.72-23.67,9.67Z"/>
</svg>