<?xml version="1.0" encoding="UTF-8"?>
<svg id="Layer_1" xmlns="http://www.w3.org/2000/svg" version="1.1" viewBox="0 0 800 800">
  <!-- Generator: Adobe Illustrator 29.6.1, SVG Export Plug-In . SVG Version: 2.1.1 Build 9)  -->
  <defs>
    <style>
      .st0, .st1 {
        fill: #fff;
      }

      .st1 {
        fill-rule: evenodd;
      }
    </style>
  </defs>
  <path class="st0" d="M300,421.33c-11.76,0-21.33-9.57-21.33-21.33s9.57-21.33,21.33-21.33h200c11.76,0,21.33,9.57,21.33,21.33s-9.57,21.33-21.33,21.33h-200Z"/>
  <path class="st1" d="M400,721.33c-85.83,0-166.52-33.42-227.21-94.12-60.69-60.69-94.12-141.38-94.12-227.21s33.42-166.52,94.12-227.21,141.38-94.12,227.21-94.12,166.52,33.42,227.21,94.12c60.69,60.69,94.12,141.38,94.12,227.21s-33.42,166.52-94.12,227.21c-60.69,60.69-141.38,94.12-227.21,94.12ZM400,121.33c-153.66,0-278.67,125.01-278.67,278.67s125.01,278.67,278.67,278.67,278.67-125.01,278.67-278.67S553.66,121.33,400,121.33Z"/>
</svg>