<?xml version="1.0" encoding="UTF-8"?>
<svg id="_x32_" xmlns="http://www.w3.org/2000/svg" version="1.1" viewBox="0 0 800 800">
  <!-- Generator: Adobe Illustrator 29.6.1, SVG Export Plug-In . SVG Version: 2.1.1 Build 9)  -->
  <defs>
    <style>
      .st0 {
        fill: #fff;
      }
    </style>
  </defs>
  <path class="st0" d="M686.12,108.98s4.65,3.28-67.72-18.7c-64.87-19.69-126.24-23.92-126.24-23.92l-4.25-30.15c-2.92-20.81-19.96-36.21-40.03-36.21h-95.78c-20.04,0-37.08,15.4-40.02,36.21l-4.25,30.15s-61.34,4.23-126.22,23.92c-72.4,21.98-67.74,18.7-67.74,18.7-16.13,4.45-27.4,19.77-27.4,37.29v26.09h627.09v-26.09c0-17.51-11.27-32.84-27.43-37.29Z"/>
  <path class="st0" d="M138.43,726.14c3.69,41.8,38.71,73.86,80.69,73.86h361.76c41.96,0,76.99-32.05,80.69-73.86l40.07-511.27H98.36l40.06,511.27ZM534.4,327.98c.8-13.13,12.08-23.14,25.21-22.34,13.13.8,23.12,12.08,22.34,25.21l-22.64,374.21c-.8,13.13-12.08,23.12-25.21,22.32-13.13-.8-23.13-12.07-22.34-25.2l22.64-374.21ZM376.17,329.41c0-13.16,10.66-23.81,23.81-23.81s23.81,10.66,23.81,23.81v374.21c0,13.16-10.66,23.81-23.81,23.81s-23.81-10.66-23.81-23.81v-374.21ZM240.36,305.64c13.13-.8,24.41,9.21,25.21,22.34l22.67,374.21c.8,13.13-9.21,24.4-22.34,25.2-13.13.8-24.41-9.2-25.21-22.32l-22.67-374.21c-.8-13.13,9.21-24.41,22.34-25.21Z"/>
</svg>