<?xml version="1.0" encoding="UTF-8"?>
<svg id="Layer_1" xmlns="http://www.w3.org/2000/svg" version="1.1" viewBox="0 0 800 800">
  <!-- Generator: Adobe Illustrator 29.6.1, SVG Export Plug-In . SVG Version: 2.1.1 Build 9)  -->
  <defs>
    <style>
      .st0 {
        fill: #fff;
      }
    </style>
  </defs>
  <path class="st0" d="M704,329.33c-1.4-4.43-4.01-8.37-7.55-11.38-3.54-3.01-7.85-4.96-12.45-5.62l-180.67-26.33-81-163.67c-2.31-3.87-5.58-7.07-9.49-9.29-3.92-2.22-8.34-3.39-12.84-3.39s-8.93,1.17-12.84,3.39c-3.91,2.22-7.19,5.43-9.49,9.29l-81,163.67-180.67,26.33c-4.6.66-8.91,2.61-12.45,5.62-3.54,3.01-6.16,6.95-7.55,11.38-1.49,4.41-1.72,9.16-.66,13.69,1.06,4.54,3.37,8.68,6.66,11.98l131.33,127.33-31,180c-.79,4.63-.27,9.39,1.5,13.75,1.77,4.36,4.71,8.14,8.5,10.92,3.8,2.7,8.28,4.29,12.93,4.59,4.65.29,9.3-.72,13.4-2.92l161.33-85,161.67,85c3.58,1.96,7.59,2.99,11.67,3,5.24-.06,10.35-1.69,14.67-4.67,3.79-2.78,6.73-6.56,8.5-10.92,1.77-4.36,2.29-9.12,1.5-13.75l-31.33-180,131-127.33c3.35-3.26,5.72-7.39,6.84-11.93s.94-9.3-.5-13.74Z"/>
</svg>