<?xml version="1.0" encoding="UTF-8"?>
<svg id="Layer_1" xmlns="http://www.w3.org/2000/svg" version="1.1" viewBox="0 0 38.88 34.56">
  <!-- Generator: Adobe Illustrator 29.6.1, SVG Export Plug-In . SVG Version: 2.1.1 Build 9)  -->
  <defs>
    <style>
      .st0 {
        fill: #fff;
      }
    </style>
  </defs>
  <path d="M32.32,8.04c.44.43.73,1.34.8,1.96.38,3.34.31,11,0,14.41-.15,1.67-.76,2.75-2.52,3-6.39-.48-13.65.61-19.94,0-1.9-.18-2.59-1.15-2.76-3-.31-3.56-.3-10.36,0-13.94.26-3.03,1.77-3.08,4.44-3.24,4.87-.3,12.74-.41,17.54,0,.77.07,1.87.26,2.43.81ZM30.48,10.12l-9.96,5.91-9.6-5.91c-.69-.22-.23,1.91-.37,2.24l9.97,6.16,9.91-6.05.05-2.35Z"/>
  <path class="st0" d="M30.48,10.12l-.05,2.35-9.91,6.05-9.97-6.16c.14-.33-.33-2.45.37-2.24l9.6,5.91,9.96-5.91Z"/>
</svg>