<?xml version="1.0" encoding="UTF-8"?>
<svg id="_x39_" xmlns="http://www.w3.org/2000/svg" version="1.1" viewBox="0 0 800 800">
  <!-- Generator: Adobe Illustrator 29.6.1, SVG Export Plug-In . SVG Version: 2.1.1 Build 9)  -->
  <defs>
    <style>
      .st0 {
        fill: #fefefe;
      }

      .st0, .st1 {
        fill-rule: evenodd;
      }

      .st1 {
        fill: #425f9c;
      }
    </style>
  </defs>
  <path class="st1" d="M97.63,33.2h604.39c33.56,0,60.98,27.42,60.98,60.92v604.39c0,33.56-27.43,60.98-60.98,60.98H97.63c-33.56,0-60.98-27.43-60.98-60.98V94.12c0-33.49,27.42-60.92,60.98-60.92h0Z"/>
  <path class="st0" d="M522.89,327.46v-50.14c0-24.39,16.26-30.07,27.75-30.07h70.27v-107.38l-96.79-.45c-107.44,0-131.9,80.15-131.9,131.38v56.66h-62.14v125.25h62.66v313.29h125.32v-313.29h104.6l-.19-125.25h-99.57Z"/>
</svg>