<?xml version="1.0" encoding="UTF-8"?>
<svg id="Layer_1" xmlns="http://www.w3.org/2000/svg" version="1.1" viewBox="0 0 480 480">
  <!-- Generator: Adobe Illustrator 29.6.1, SVG Export Plug-In . SVG Version: 2.1.1 Build 9)  -->
  <defs>
    <style>
      .st0 {
        fill: #ffc107;
      }

      .st1 {
        fill: #ff3d00;
      }

      .st2 {
        fill: #4caf50;
      }

      .st3 {
        fill: #1976d2;
      }
    </style>
  </defs>
  <path class="st0" d="M456.74,196.71h-17.8v-.92h-198.94v88.42h124.92c-18.22,51.47-67.2,88.42-124.92,88.42-73.24,0-132.62-59.38-132.62-132.62s59.38-132.62,132.62-132.62c33.81,0,64.57,12.75,87.98,33.59l62.52-62.52c-39.48-36.79-92.28-59.48-150.51-59.48C117.93,18.96,18.96,117.93,18.96,240s98.97,221.04,221.04,221.04,221.04-98.97,221.04-221.04c0-14.82-1.53-29.29-4.3-43.29Z"/>
  <path class="st1" d="M44.45,137.12l72.62,53.26c19.65-48.65,67.24-83,122.93-83,33.81,0,64.57,12.75,87.98,33.59l62.52-62.52c-39.48-36.79-92.28-59.48-150.51-59.48-84.9,0-158.53,47.93-195.55,118.16Z"/>
  <path class="st2" d="M240,461.04c57.09,0,108.97-21.85,148.2-57.38l-68.41-57.89c-22.19,16.81-49.78,26.86-79.78,26.86-57.49,0-106.31-36.66-124.7-87.82l-72.08,55.54c36.58,71.58,110.87,120.7,196.78,120.7Z"/>
  <path class="st3" d="M456.74,196.71c-.05-.31-.09-.61-.14-.92h-216.61v88.42h124.92c-8.75,24.72-24.66,46.04-45.17,61.57.01-.01.02-.01.03-.02l68.41,57.89c-4.84,4.4,72.84-53.13,72.84-163.65,0-14.82-1.53-29.29-4.3-43.29Z"/>
</svg>