<?xml version="1.0" encoding="UTF-8"?>
<svg id="Layer_1" xmlns="http://www.w3.org/2000/svg" version="1.1" viewBox="0 0 40.32 39.6">
  <!-- Generator: Adobe Illustrator 29.6.1, SVG Export Plug-In . SVG Version: 2.1.1 Build 9)  -->
  <defs>
    <style>
      .st0 {
        fill: #fff;
      }
    </style>
  </defs>
  <path d="M20.48,19.01c.46.57,1.22.74,1.4,1.61.58,2.79-3.4,2.37-5.13,2.93s-3.9,2.22-4.71,3.93c-.76,1.59-.33,4.99-2.72,4.94-3.04-.07-1.76-4.6-1.04-6.3,1.96-4.63,7.06-7.23,11.96-7.12-.02-.43-.79-.2-1.21-.35-8.68-3.19-1.9-16.24,5.65-10.69,4.99,3.67,1.84,11.41-4.2,11.04ZM20.42,10.9c-1.87.42-1.98,3.56.25,3.98,3.08.59,3.4-4.8-.25-3.98Z"/>
  <path d="M28.35,20.73c1.45-.24,5.41,3.4,4.44,5.18l-6.69,6.75c-.79.41-3.28.42-4.11.09-1.65-.66-1.55-3.79-.92-5.11.37-.77,5.02-5.44,5.89-6.11.36-.28.96-.72,1.39-.79Z"/>
  <path class="st0" d="M20.42,10.9c3.65-.82,3.33,4.58.25,3.98-2.23-.43-2.12-3.56-.25-3.98Z"/>
</svg>