<?xml version="1.0" encoding="UTF-8"?>
<svg xmlns="http://www.w3.org/2000/svg" version="1.1" xmlns:xlink="http://www.w3.org/1999/xlink" viewBox="0 0 3710 3710">
  <!-- Generator: Adobe Illustrator 29.6.1, SVG Export Plug-In . SVG Version: 2.1.1 Build 9)  -->
  <defs>
    <style>
      .st0 {
        fill: url(#linear-gradient2);
      }

      .st1 {
        fill: url(#linear-gradient36);
      }

      .st2 {
        fill: url(#linear-gradient34);
      }

      .st3 {
        fill: url(#linear-gradient33);
      }

      .st4 {
        fill: url(#linear-gradient10);
      }

      .st5 {
        fill: url(#linear-gradient32);
      }

      .st6 {
        opacity: .53;
      }

      .st6, .st7, .st8 {
        fill: #fff;
      }

      .st9 {
        fill: url(#linear-gradient21);
      }

      .st10 {
        fill: url(#linear-gradient37);
      }

      .st11 {
        fill: url(#linear-gradient27);
      }

      .st12 {
        fill: url(#linear-gradient35);
      }

      .st13 {
        fill: url(#linear-gradient26);
      }

      .st14 {
        fill: url(#linear-gradient1);
      }

      .st15, .st16, .st8 {
        mix-blend-mode: soft-light;
      }

      .st17 {
        fill: url(#linear-gradient9);
      }

      .st18 {
        fill: url(#linear-gradient18);
      }

      .st19 {
        fill: url(#linear-gradient23);
      }

      .st20 {
        fill: url(#linear-gradient8);
      }

      .st21 {
        fill: none;
      }

      .st22 {
        fill: url(#linear-gradient16);
      }

      .st23 {
        fill: url(#linear-gradient24);
      }

      .st24 {
        fill: url(#linear-gradient30);
      }

      .st25 {
        clip-path: url(#clippath-1);
      }

      .st26 {
        fill: url(#linear-gradient25);
      }

      .st26, .st27, .st16, .st28 {
        opacity: .3;
      }

      .st26, .st27, .st28 {
        mix-blend-mode: multiply;
      }

      .st29 {
        fill: url(#linear-gradient22);
      }

      .st30 {
        isolation: isolate;
      }

      .st27 {
        fill: #bfc8d6;
      }

      .st31 {
        fill: url(#linear-gradient29);
      }

      .st32 {
        fill: url(#linear-gradient19);
      }

      .st33 {
        fill: url(#linear-gradient12);
      }

      .st34 {
        fill: url(#linear-gradient28);
      }

      .st35 {
        fill: url(#linear-gradient7);
      }

      .st36 {
        fill: url(#linear-gradient20);
      }

      .st37 {
        fill: url(#linear-gradient4);
      }

      .st38 {
        fill: url(#linear-gradient31);
      }

      .st39 {
        fill: url(#linear-gradient14);
      }

      .st40 {
        fill: url(#linear-gradient5);
      }

      .st28 {
        fill: url(#linear-gradient11);
      }

      .st41 {
        fill: url(#linear-gradient3);
      }

      .st8 {
        opacity: .4;
      }

      .st42 {
        fill: url(#linear-gradient38);
      }

      .st43 {
        fill: url(#linear-gradient15);
      }

      .st44 {
        fill: url(#linear-gradient17);
      }

      .st45 {
        fill: url(#linear-gradient6);
      }

      .st46 {
        fill: url(#linear-gradient13);
      }

      .st47 {
        fill: #fcfdfe;
      }

      .st48 {
        fill: url(#linear-gradient);
      }

      .st49 {
        clip-path: url(#clippath);
      }

      .st50 {
        fill: #f4f7fa;
      }
    </style>
    <linearGradient id="linear-gradient" x1="-8326.34" y1="1504.24" x2="-7518.41" y2="3627.15" gradientTransform="translate(-5900.95 2759.59) rotate(155.31) scale(1 -1)" gradientUnits="userSpaceOnUse">
      <stop offset="0" stop-color="#e38ddd"/>
      <stop offset="1" stop-color="#9571f6"/>
    </linearGradient>
    <clipPath id="clippath">
      <path class="st21" d="M2735.67,2518.55l-279.87,71.2s-158.75-136.41-92.73-229.56c66.02-93.15-60.27-237.86-117.74-322.76-155.91-230.37,140.71-357.51-33.7-669.67-46.39-83.03-165.13-225.52-125.85-331.62,44.75-120.87,149.58-80.27,170.21-172.54,32.24-144.21,154.22-253.83,295.44-196.85,139.38,56.24,149.49,308.35-12.85,600.35-91.78,220.82-71.99,262.15-4.37,352.62,47.36,63.36,217.76,203.78,156.55,327.61-61.2,123.83-95.41,240.9-13.41,297.51,124.78,86.14,58.31,273.7,58.31,273.7Z"/>
    </clipPath>
    <linearGradient id="linear-gradient1" x1="-2915.64" y1="788.8" x2="-2092.83" y2="2143.36" gradientTransform="translate(-272.84 1479.53) rotate(157.17) scale(1 -1)" gradientUnits="userSpaceOnUse">
      <stop offset="0" stop-color="#ff9085"/>
      <stop offset="1" stop-color="#fb6fbb"/>
    </linearGradient>
    <clipPath id="clippath-1">
      <path class="st21" d="M2757.29,2487.85l-348.58,144.07c-40.2-37.98-102.84-112.81-38.96-164.03,88.81-71.22,17.78-239.65-35.99-287.15-66.55-58.79-218.45-198.79-82.91-310.91,112.84-93.33,204.99-132.18,145.16-292.99-59.82-160.81-11.61-297.23,144.01-351.84,163.77-57.47,206.99-312.07,366.92-300.5,278.65,20.16,224.28,453.11-8.57,670.16-232.85,217.05-32.9,243.75,30.96,369.05,87.18,171.07-181.63,240.1-218.05,337.13-28.55,76.06,13.87,146.5,46,187.01Z"/>
    </clipPath>
    <linearGradient id="linear-gradient2" x1="704.84" y1="1620.58" x2="2400.78" y2="1620.58" gradientUnits="userSpaceOnUse">
      <stop offset="0" stop-color="#ab316d"/>
      <stop offset="1" stop-color="#792d3d"/>
    </linearGradient>
    <linearGradient id="linear-gradient3" x1="2292.18" y1="146.53" x2="552.51" y2="3731.31" gradientUnits="userSpaceOnUse">
      <stop offset="0" stop-color="#ffc444"/>
      <stop offset="1" stop-color="#f36f56"/>
    </linearGradient>
    <linearGradient id="linear-gradient4" x1="748.06" y1="966.72" x2="2437.17" y2="966.72" xlink:href="#linear-gradient2"/>
    <linearGradient id="linear-gradient5" x1="2770.1" y1="1450.44" x2="1495.9" y2="3940.59" gradientUnits="userSpaceOnUse">
      <stop offset="0" stop-color="#40447e"/>
      <stop offset="1" stop-color="#3c3b6b"/>
    </linearGradient>
    <linearGradient id="linear-gradient6" x1="1835.27" y1="1782.73" x2="2750.55" y2="1782.73" xlink:href="#linear-gradient5"/>
    <linearGradient id="linear-gradient7" x1="2184.38" y1="1788.93" x2="2706.37" y2="1788.93" xlink:href="#linear-gradient5"/>
    <linearGradient id="linear-gradient8" x1="1890.95" y1="1786.11" x2="1955.31" y2="1786.11" xlink:href="#linear-gradient5"/>
    <linearGradient id="linear-gradient9" x1="1976.22" y1="1786.84" x2="2039.79" y2="1786.84" xlink:href="#linear-gradient5"/>
    <linearGradient id="linear-gradient10" x1="2060.44" y1="1787.57" x2="2123.24" y2="1787.57" xlink:href="#linear-gradient5"/>
    <linearGradient id="linear-gradient11" x1="1908.42" y1="2489.16" x2="2689.75" y2="2489.16" xlink:href="#linear-gradient5"/>
    <linearGradient id="linear-gradient12" x1="1964.94" y1="2176.1" x2="2294.1" y2="2176.1" xlink:href="#linear-gradient5"/>
    <linearGradient id="linear-gradient13" x1="2317.37" y1="2034.32" x2="2639.88" y2="2034.32" xlink:href="#linear-gradient5"/>
    <linearGradient id="linear-gradient14" x1="2317.37" y1="2123.14" x2="2639.88" y2="2123.14" xlink:href="#linear-gradient5"/>
    <linearGradient id="linear-gradient15" x1="2317.37" y1="2215.37" x2="2639.88" y2="2215.37" xlink:href="#linear-gradient5"/>
    <linearGradient id="linear-gradient16" x1="2317.37" y1="2300.77" x2="2639.88" y2="2300.77" xlink:href="#linear-gradient5"/>
    <linearGradient id="linear-gradient17" x1="1968.27" y1="2427.46" x2="2639.88" y2="2427.46" xlink:href="#linear-gradient5"/>
    <linearGradient id="linear-gradient18" x1="1968.27" y1="2517.45" x2="2639.88" y2="2517.45" xlink:href="#linear-gradient5"/>
    <linearGradient id="linear-gradient19" x1="1968.27" y1="2607.45" x2="2639.88" y2="2607.45" xlink:href="#linear-gradient5"/>
    <linearGradient id="linear-gradient20" x1="1968.27" y1="2697.45" x2="2639.88" y2="2697.45" xlink:href="#linear-gradient5"/>
    <linearGradient id="linear-gradient21" x1="1968.27" y1="2842.82" x2="2639.88" y2="2842.82" xlink:href="#linear-gradient5"/>
    <linearGradient id="linear-gradient22" x1="1968.27" y1="2932.82" x2="2639.88" y2="2932.82" xlink:href="#linear-gradient5"/>
    <linearGradient id="linear-gradient23" x1="2809.9" y1="1452.56" x2="1540.14" y2="3934.05" gradientTransform="matrix(1,0,0,1,0,0)" xlink:href="#linear-gradient"/>
    <linearGradient id="linear-gradient24" x1="1878.5" y1="1783.1" x2="2789.71" y2="1783.1" xlink:href="#linear-gradient5"/>
    <linearGradient id="linear-gradient25" x1="1948.32" y1="2487.37" x2="2729.65" y2="2487.37" gradientTransform="matrix(1,0,0,1,0,0)" xlink:href="#linear-gradient"/>
    <linearGradient id="linear-gradient26" x1="-3666.73" y1="2794.93" x2="-3000.36" y2="2794.93" gradientTransform="translate(4505.24)" gradientUnits="userSpaceOnUse">
      <stop offset="0" stop-color="#444b8c"/>
      <stop offset="1" stop-color="#26264f"/>
    </linearGradient>
    <linearGradient id="linear-gradient27" x1="-3133.37" y1="2444.67" x2="-3480.31" y2="3210.09" gradientTransform="translate(4505.24)" gradientUnits="userSpaceOnUse">
      <stop offset="0" stop-color="#aa80f9"/>
      <stop offset="1" stop-color="#6165d7"/>
    </linearGradient>
    <linearGradient id="linear-gradient28" x1="-3500.04" y1="3122.48" x2="-3319.28" y2="2835.39" xlink:href="#linear-gradient27"/>
    <linearGradient id="linear-gradient29" x1="-3420.17" y1="2699.84" x2="-3150.63" y2="3272.01" xlink:href="#linear-gradient27"/>
    <linearGradient id="linear-gradient30" x1="1186.93" y1="2388" x2="1213.53" y2="2388" gradientTransform="matrix(1,0,0,1,0,0)" xlink:href="#linear-gradient26"/>
    <linearGradient id="linear-gradient31" x1="1186.93" y1="2177.75" x2="1213.53" y2="2177.75" gradientTransform="matrix(1,0,0,1,0,0)" xlink:href="#linear-gradient26"/>
    <linearGradient id="linear-gradient32" x1="1186.93" y1="1956.99" x2="1213.53" y2="1956.99" gradientTransform="matrix(1,0,0,1,0,0)" xlink:href="#linear-gradient26"/>
    <linearGradient id="linear-gradient33" x1="1567.58" y1="2760.03" x2="2014.33" y2="2760.03" gradientTransform="matrix(1,0,0,1,0,0)" xlink:href="#linear-gradient26"/>
    <linearGradient id="linear-gradient34" x1="2464.64" y1="1433.5" x2="2719.67" y2="1433.5" gradientTransform="matrix(1,0,0,1,0,0)" xlink:href="#linear-gradient26"/>
    <linearGradient id="linear-gradient35" x1="1152.34" y1="1941.02" x2="1262.69" y2="1941.02" gradientTransform="matrix(1,0,0,1,0,0)" xlink:href="#linear-gradient26"/>
    <linearGradient id="linear-gradient36" x1="1944.28" y1="2739.96" x2="2054.63" y2="2739.96" gradientTransform="translate(1200.74 -556.59) rotate(22.5)" xlink:href="#linear-gradient26"/>
    <linearGradient id="linear-gradient37" x1="2333.24" y1="1264.72" x2="2443.59" y2="1264.72" gradientTransform="matrix(1,0,0,1,0,0)" xlink:href="#linear-gradient26"/>
    <linearGradient id="linear-gradient38" x1="2652.11" y1="1632.65" x2="2762.46" y2="1632.65" gradientTransform="matrix(1,0,0,1,0,0)" xlink:href="#linear-gradient26"/>
  </defs>
  <g class="st30">
    <g id="Illustration">
      <g>
        <path class="st50" d="M3155.98,1611.17c-73.78-482.92-376.27-1076.22-973.89-1138.31,0,0-453.73-55.19-901.02,28.46-265.46,49.64-498.23,197.42-645.52,409.82-147.29,212.4-196.49,471.38-136.78,718.29,38.78,160.37,64.99,326.34,57.8,491.13-9.07,207.83-26.15,426.34,65.72,620.15,134.61,283.95,463.06,367.6,749.65,394.27,105.61,9.83,211.61,13.79,317.32,22.15,202.78,16.03,430.19-9.91,625.63-62.71,996.02-269.05,914.86-1000.33,841.08-1483.25Z"/>
        <path class="st27" d="M2020.18,926.1l-51.86,3.5c-5.95-23.14-13.77-45.49-23.47-66.8l43.02-28.87c11.74-7.88,14.75-23.82,6.74-35.61l-50.18-73.83c-8.03-11.82-24.09-15.03-35.87-7.17l-43.6,29.1c-16.56-16.97-34.54-32.53-53.78-46.46l22.99-47.21c6.2-12.73.77-28.19-12.12-34.53l-80.79-39.75c-12.94-6.37-28.49-1.2-34.73,11.55l-23.15,47.36c-22.64-6.59-46.07-11.21-70.05-13.87l-4.03-53.11c-1.08-14.26-13.63-25.13-28.04-24.28l-90.3,5.33c-14.47.85-25.33,13.14-24.24,27.44l4.04,53.26c-23.52,5.56-46.24,13.01-67.91,22.34l-30.46-44.41c-8.21-11.98-24.65-15.26-36.71-7.34l-75.58,49.63c-12.11,7.95-15.24,24.13-6.99,36.12l30.56,44.42c-17.36,16.4-33.21,34.29-47.42,53.43l-48.9-23.62c-13.24-6.4-29.16-1.1-35.55,11.82l-40.01,80.94c-6.41,12.96-.83,28.63,12.44,35l48.54,23.3c-6.62,22.75-11.16,46.31-13.67,70.41l-53.74,3.63c-14.71.99-25.76,13.49-24.66,27.91l6.84,90.2c1.09,14.42,13.91,25.27,28.62,24.24l53.3-3.75c6.01,23.65,14,46.47,23.92,68.22l-43.85,29.27c-12.18,8.13-15.33,24.4-7.03,36.35l51.81,74.62c8.28,11.92,24.83,14.97,36.96,6.83l43.51-29.2c17.07,17.29,35.67,33.05,55.52,47.12l-22.74,46.52c-6.36,13-.82,28.58,12.37,34.79l82.29,38.75c13.13,6.19,28.9.67,35.22-12.3l22.44-46.08c23.22,6.43,47.23,10.77,71.75,13.08l3.87,50.94c1.09,14.3,13.69,24.97,28.13,23.83l90.17-7.11c14.39-1.14,25.17-13.61,24.09-27.87l-3.85-50.79c23.72-6.02,46.59-13.95,68.32-23.8l28.79,41.84c8.09,11.76,24.26,14.75,36.11,6.67l73.95-50.42c11.8-8.05,14.84-24.09,6.78-35.84l-28.87-42.09c17.09-16.68,32.7-34.79,46.6-54.16l46.14,22.15c12.84,6.16,28.24.78,34.41-12.02l38.51-79.94c6.15-12.77.76-28.13-12.05-34.32l-46.23-22.33c6.3-22.54,10.58-45.85,12.85-69.69l51.43-3.62c14.15-1,24.75-13.26,23.68-27.4l-6.71-88.41c-1.07-14.14-13.41-24.82-27.57-23.87ZM1552.73,767.24c145.33-9.23,271.33,99.58,282.22,242.99,10.88,143.41-97.38,268.37-242.59,279.18-146.09,10.87-274.1-97.81-285.1-242.79-11-144.99,99.26-270.09,245.47-279.38Z"/>
        <g>
          <g>
            <path class="st48" d="M2677.37,2244.85c71.73,49.52,77.05,133.89,71.34,195.54-7.4,3.93-10.65,8.08-17.21,13.68-59.2,50.56-95.23,59.51-161.46,100.14-14.25,8.74-63.9,21.68-84.52,25.67l-38.57,6.82s-149.9-133.35-83.87-226.5c66.02-93.15-60.28-237.86-117.74-322.76-35.28-52.14-34.72-87.29-44.61-108.53-104.69-224.83-205.19-253.95-194.32-347.97,12-103.8,137.91-98.02,156.93-210.24,21.47-126.72-124.66-219.17-77.55-334.54,8.08-19.78,16.92-39.89,37.19-59.92,50.03-49.46,116.98-40.87,133.02-112.62,32.24-144.21,154.22-253.83,295.44-196.85,139.38,56.24,149.49,308.35-12.85,600.35-91.77,220.82-71.99,262.15-4.37,352.62,47.36,63.36,217.75,203.78,156.55,327.61-61.2,123.83-95.42,240.9-13.41,297.51Z"/>
            <g class="st16">
              <g class="st49">
                <g>
                  <path class="st47" d="M2607.27,2537.97l-5.34,2.06c-11.64-29.39-22.98-59.18-33.71-88.54-79.44-217.42-134.05-434.86-162.31-646.29-23.94-179.15-29.35-356.49-16.07-527.1,10.68-137.21,33.45-270.83,67.69-397.15,24.07-88.8,53.5-173.11,87.49-250.57,5.92-13.5,12.77-27.03,19.39-40.11,8.82-17.43,17.94-35.46,24.94-53.56l5.34,1.63c-7.1,18.35-16.28,36.49-25.16,54.05-6.59,13.02-13.4,26.48-19.26,39.84-33.89,77.22-63.23,161.27-87.23,249.82-34.15,126.01-56.86,259.31-67.52,396.2-13.26,170.26-7.86,347.25,16.04,526.05,28.21,211.07,82.74,428.16,162.06,645.25,10.71,29.33,22.04,59.07,33.66,88.42Z"/>
                  <path class="st47" d="M2388.47,1486.03l-5.69.43c-8.72-228.66-276.28-519.29-278.98-522.2l4.36-3.62c2.71,2.92,271.52,294.89,280.31,525.38Z"/>
                  <path class="st47" d="M2472.7,2121.15l-5.62,1.05c-25.33-153.93,182.69-392.05,184.79-394.43l4.32,3.3c-2.09,2.37-208.42,238.57-183.49,390.09Z"/>
                  <path class="st47" d="M2495.17,2206.98l-5.38,1.96c-35.34-95.35-138.65-205.33-290.9-309.67q-7.66-5.25-8.02-6.19l5.36-2.02-2.68,1.01,2.12-1.86c.46.41,3.35,2.39,6.71,4.68,153.12,104.94,257.11,215.77,292.8,312.08Z"/>
                  <path class="st47" d="M2586.86,2484.02l-5.68.45c-4.77-112.45,129.38-228.15,130.73-229.3l3.72,3.88c-1.34,1.14-133.43,115.09-128.77,224.97Z"/>
                  <path class="st47" d="M2599.83,2542.34c-62.22-67.05-147.79-118.62-261.59-157.67l2.16-5.03c114.68,39.35,200.96,91.39,263.79,159.09l-4.36,3.61Z"/>
                  <path class="st47" d="M2444.16,956.69l-5.69.13c2.71-127.7-25.95-261.13-35.37-304.97-2.28-10.61-3.07-14.35-3.1-15.71l5.69-.36c.04,1.04,1.34,7.1,2.99,14.78,9.45,43.98,38.2,177.83,35.47,306.12Z"/>
                  <path class="st47" d="M2407.06,1165.1l-5.4-1.45c39.97-115.33,268.08-231.89,277.77-236.8l2.52,4.68c-2.35,1.19-235.67,120.39-274.89,233.57Z"/>
                </g>
              </g>
            </g>
          </g>
          <path class="st14" d="M2731.29,2548.31c-15.69,4.4-19.53,163.28-104.38,83.21-21.2-20-69.41-99.8-181.37-57.13-21.73,8.28-43.47,16.56-65.2,24.85-38.74-40.32-67.78-85.49-10.59-131.36,88.81-71.22,17.78-239.65-35.99-287.15-66.55-58.79-218.45-198.79-82.91-310.91,112.84-93.33,204.99-132.18,145.16-292.99-59.82-160.81-11.61-297.23,144.01-351.84,163.77-57.47,206.99-312.07,366.92-300.5,278.65,20.16,224.28,453.11-8.57,670.16-232.85,217.05-32.9,243.75,30.96,369.05,5.27,11.97,12.51,30.93,16.82,54.93,26.49,147.78-104.52,230.5-158.59,383.49-73.74,208.66-29.85,138.77-56.28,146.18Z"/>
          <g class="st16">
            <g class="st25">
              <g>
                <path class="st47" d="M2571.05,2504.16l-8,1.69c-111.83-553.27,60.73-1163.86,450.35-1593.5l6.09,4.96c-387.97,427.83-559.8,1035.87-448.44,1586.84Z"/>
                <path class="st47" d="M2537.4,2196.74l-7.54,3.16c-88.47-203.55-342.89-284.66-345.46-285.46l2.74-7.38c2.59.8,260.39,82.92,350.25,289.68Z"/>
                <path class="st47" d="M2553.41,2401.76l-8.1-.59c25.35-225.23,413.24-417.82,417.16-419.73l3.55,6.87c-3.87,1.9-387.74,192.5-412.61,413.45Z"/>
                <path class="st47" d="M2613.54,1643.83l-8.14.08c4.06-179.18-200.71-366.66-202.78-368.53l5.7-5.7c2.1,1.89,209.36,191.66,205.22,374.16Z"/>
                <path class="st47" d="M2750.16,1304.22l-6.57-4.38c126.69-168.41,412.11-224,414.98-224.54l1.35,7.61c-2.84.53-285.04,55.53-409.75,221.32Z"/>
              </g>
            </g>
          </g>
        </g>
        <g>
          <path class="st0" d="M2400.74,998.02c-3.53-52.25-42.4-94.7-92.85-96.45l-2.14-.08-1483.94-51.56-2.66-.09c-61.61-2.14-112.36,44.14-113.94,103.9-.03.95-.37,1.9-.37,2.85v1328.74c0,61.14,51.4,108.8,113.98,105.96l1486.29-67.61c52.94-2.41,95.38-49.99,95.38-105.76V1005.8c0-2.62.43-5.2.25-7.78Z"/>
          <g>
            <g>
              <g>
                <path class="st41" d="M2437.06,1006.85v1209.78c0,55.66-42.08,103.05-94.81,105.45l-1480.5,67.3c-62.31,2.83-113.7-44.7-113.7-105.7V957.83c0-.95.48-1.89.51-2.84,1.57-59.64,52.12-105.81,113.45-103.67l1480.4,51.44c50.26,1.75,90.95,44.17,94.67,96.33.18,2.57-.03,5.15-.03,7.76Z"/>
                <path class="st37" d="M2437.06,1006.85v75.25l-1689.01-41.8v-82.47c0-.95.48-1.89.51-2.84,1.65-59.63,54.81-105.71,116.13-103.58l1480.01,51.42c50.24,1.75,88.87,44.1,92.39,96.25.18,2.57-.03,5.15-.03,7.76Z"/>
                <g>
                  <path class="st7" d="M2327.35,1008.77c0,16-11.08,28.64-26.25,28.23l-1036.73-28.09c-17.03-.46-30.88-14.61-30.88-31.6v-34.33c0-16.99,14.46-30.33,31.48-29.78l1035.84,33.38c15.17.49,26.54,13.86,26.54,29.86v32.33Z"/>
                  <g>
                    <path class="st7" d="M953.27,950.84c0,18.96-15.68,33.89-35.05,33.35-19.41-.54-35.18-16.41-35.18-35.43s15.77-33.95,35.18-33.34c19.37.61,35.05,16.47,35.05,35.43Z"/>
                    <path class="st7" d="M1045.67,953.59c0,18.86-15.52,33.72-34.71,33.19-19.22-.54-34.84-16.32-34.84-35.25s15.61-33.79,34.84-33.19c19.18.6,34.71,16.39,34.71,35.25Z"/>
                    <path class="st7" d="M1137.17,956.3c0,18.77-15.37,33.56-34.38,33.03-19.04-.53-34.5-16.24-34.5-35.08s15.46-33.63,34.5-33.03c19,.6,34.38,16.3,34.38,35.08Z"/>
                  </g>
                </g>
              </g>
              <g class="st15">
                <polygon class="st7" points="1592.56 1535.07 891.02 1535.73 891.02 1190.28 1592.56 1202.3 1592.56 1535.07"/>
                <polygon class="st7" points="2320.7 1263.34 1662.38 1253.86 1662.38 1203.41 2320.7 1214.69 2320.7 1263.34"/>
                <polygon class="st7" points="2320.7 1353.68 1662.38 1347.54 1662.38 1297.1 2320.7 1305.03 2320.7 1353.68"/>
                <polygon class="st7" points="2320.7 1444.02 1662.38 1441.23 1662.38 1394.39 2320.7 1398.85 2320.7 1444.02"/>
                <polygon class="st7" points="2320.7 1534.36 1662.38 1534.92 1662.38 1484.47 2320.7 1485.71 2320.7 1534.36"/>
                <polygon class="st7" points="2320.7 1655.97 904.32 1666.95 904.32 1614.42 2320.7 1607.32 2320.7 1655.97"/>
                <polygon class="st7" points="2320.7 1746.31 904.32 1764.51 904.32 1711.98 2320.7 1697.66 2320.7 1746.31"/>
                <polygon class="st7" points="2320.7 1836.65 904.32 1862.06 904.32 1809.53 2320.7 1788 2320.7 1836.65"/>
                <polygon class="st7" points="2320.7 1926.99 904.32 1959.62 904.32 1907.09 2320.7 1878.34 2320.7 1926.99"/>
                <polygon class="st7" points="2320.7 2072.92 904.32 2117.2 904.32 2064.67 2320.7 2024.28 2320.7 2072.92"/>
                <polygon class="st7" points="2320.7 2163.26 904.32 2214.76 904.32 2162.23 2320.7 2114.62 2320.7 2163.26"/>
              </g>
            </g>
            <path class="st8" d="M2437.06,2159.89v56.74c0,55.66-42.08,103.05-94.81,105.45l-1480.5,67.3c-62.31,2.83-113.7-44.7-113.7-105.7V957.83c0-.95.48-1.89.51-2.84,1.57-59.64,52.12-105.81,113.45-103.67l103.77,3.6c5.01,21.86,12.08,46.14,21.89,71.47,7.61,19.63,16.91,39.87,28.25,60.15,11.9,21.28,26.06,42.59,42.89,63.13,47.89,58.52,117.22,110.92,217.32,140.55,9.4,2.77,18.77,5.64,28.08,8.56,105.53,33.22,205.14,76.46,289.47,138.28,23.46,17.19,45.75,35.82,66.65,56.09,16.15,15.66,31.48,32.29,45.88,49.96,11.05,13.54,21.59,27.73,31.54,42.55,10.6,15.86,20.58,32.47,29.85,49.88,12.44,23.34,23.62,48.17,33.39,74.57,5.93,15.96,11.35,32.48,16.21,49.61,3.92,13.66,7.47,27.68,10.66,42.13,3.57,16,6.69,32.53,9.37,49.54,2.29,14.49,4.24,29.35,5.84,44.59,1.74,16.08,3.06,32.6,3.98,49.55.79,13.75,1.3,27.78,1.54,42.14.29,16.14.22,32.69-.19,49.61-.14,6.55-.34,13.18-.6,19.86-1.2,31.19.89,58.24,5.9,81.69,3.95,18.55,9.72,34.82,17.15,49.06,8.41,16.18,18.9,29.75,31.22,41.06,26.84,24.68,61.83,38.66,102.69,45.75,122.56,21.28,295.99-19.09,432.3-14.83Z"/>
          </g>
        </g>
        <g>
          <g>
            <g>
              <path class="st40" d="M2749.6,1809.48v1154.4c0,33.26-14.31,64.17-37.93,83.89-14.75,12.34-31.49,20.62-50.93,22.34l-722.35,63.99c-56.69,5.02-103.11-38.41-103.11-96.16v-1235.3c0-.9,0-2.61.03-3.51,1.43-56.49,47.52-102,103.33-101.16l722.15,10.84c48.17.72,86.2,41.86,89.76,92.36.17,2.49-.93,5.78-.93,8.32Z"/>
              <path class="st45" d="M2749.6,1809.48v57.99l-914.32-2.78v-62.05c0-.9,0-2.61.03-3.51,1.51-56.49,49.98-101.96,105.76-101.13l721.9,10.83c48.15.72,84.21,41.83,87.57,92.32.17,2.49-.93,5.78-.93,8.32Z"/>
              <path class="st35" d="M2706.37,1795.65c0,15.47-11.5,27.94-25.94,27.85l-468.32-2.93c-15.52-.1-27.74-13.21-27.74-29.3v-8.07c0-16.09,12.3-29.01,27.82-28.84l468.39,5.22c14.44.16,25.78,12.83,25.78,28.3v7.76Z"/>
              <g>
                <path class="st20" d="M1955.31,1786.39c0,17.98-14.35,32.47-32.1,32.36-17.79-.11-32.25-14.85-32.25-32.92s14.46-32.55,32.25-32.36c17.75.19,32.1,14.93,32.1,32.91Z"/>
                <path class="st17" d="M2039.79,1787.12c0,17.87-14.18,32.27-31.71,32.16-17.58-.11-31.86-14.76-31.86-32.71s14.28-32.36,31.86-32.16c17.53.19,31.71,14.84,31.71,32.71Z"/>
                <path class="st4" d="M2123.24,1787.84c0,17.76-14.01,32.08-31.33,31.97-17.36-.11-31.47-14.67-31.47-32.51s14.11-32.16,31.47-31.97c17.32.19,31.33,14.75,31.33,32.51Z"/>
              </g>
            </g>
            <polygon class="st28" points="2689.75 2976.63 1908.42 3040.47 1908.42 1939.73 2689.75 1937.84 2689.75 2976.63"/>
            <g class="st15">
              <polygon class="st33" points="2294.1 2330.27 1964.94 2340.61 1964.94 2014.13 2294.1 2011.58 2294.1 2330.27"/>
              <polygon class="st46" points="2639.88 2056.12 2317.37 2059.77 2317.37 2011.38 2639.88 2008.87 2639.88 2056.12"/>
              <polygon class="st39" points="2639.88 2143.87 2317.37 2149.66 2317.37 2101.26 2639.88 2096.62 2639.88 2143.87"/>
              <polygon class="st43" points="2639.88 2234.99 2317.37 2243 2317.37 2194.6 2639.88 2187.74 2639.88 2234.99"/>
              <polygon class="st22" points="2639.88 2319.36 2317.37 2329.43 2317.37 2281.03 2639.88 2272.11 2639.88 2319.36"/>
              <polygon class="st44" points="2639.88 2437.49 1968.27 2464.68 1968.27 2415.01 2639.88 2390.24 2639.88 2437.49"/>
              <polygon class="st18" points="2639.88 2525.23 1968.27 2556.92 1968.27 2507.25 2639.88 2477.98 2639.88 2525.23"/>
              <polygon class="st32" points="2639.88 2612.98 1968.27 2649.17 1968.27 2599.5 2639.88 2565.73 2639.88 2612.98"/>
              <polygon class="st36" points="2639.88 2700.73 1968.27 2741.41 1968.27 2691.74 2639.88 2653.48 2639.88 2700.73"/>
              <polygon class="st9" points="2639.88 2842.48 1968.27 2890.42 1968.27 2840.75 2639.88 2795.23 2639.88 2842.48"/>
              <polygon class="st29" points="2639.88 2930.23 1968.27 2982.66 1968.27 2932.99 2639.88 2882.98 2639.88 2930.23"/>
            </g>
          </g>
          <g>
            <g>
              <path class="st19" d="M2789.49,1809.76v1150.76c0,33.15-14.81,64.08-38.28,83.74-14.66,12.3-32.29,20.67-51.61,22.38l-719.16,63.6c-56.33,4.99-101.94-38.46-101.94-96.03v-1231.22c0-.89.56-2.61.58-3.51,1.42-56.31,47.08-101.69,102.53-100.86l718.07,10.77c47.88.72,86.45,41.73,89.99,92.07.17,2.48-.17,5.76-.17,8.29Z"/>
              <path class="st23" d="M2789.49,1809.76v57.8l-911-2.73v-61.85c0-.89.56-2.61.58-3.51,1.5-56.31,49.51-101.65,104.94-100.82l717.83,10.77c47.86.72,84.47,41.7,87.81,92.04.17,2.48-.17,5.76-.17,8.29Z"/>
              <path class="st7" d="M2742.95,1795.97c0,15.43-11.03,27.86-25.39,27.77l-465.68-2.95c-15.43-.1-27.6-13.2-27.6-29.25v-8.04c0-16.04,12.48-28.89,27.91-28.72l465.4,5.21c14.36.16,25.36,12.81,25.36,28.24v7.74Z"/>
              <g>
                <path class="st7" d="M1998.88,1786.76c0,17.93-14.26,32.37-31.9,32.26-17.68-.11-32.05-14.8-32.05-32.81s14.37-32.45,32.05-32.26c17.64.19,31.9,14.88,31.9,32.81Z"/>
                <path class="st7" d="M2082.83,1787.49c0,17.82-14.09,32.17-31.51,32.06-17.47-.11-31.66-14.71-31.66-32.61s14.19-32.25,31.66-32.06c17.42.19,31.51,14.79,31.51,32.61Z"/>
                <path class="st7" d="M2165.77,1788.2c0,17.71-13.92,31.98-31.13,31.87-17.26-.11-31.28-14.62-31.28-32.41s14.02-32.06,31.28-31.87c17.21.19,31.13,14.7,31.13,32.41Z"/>
              </g>
            </g>
            <polygon class="st26" points="2729.65 2973.21 1948.32 3037.03 1948.32 1939.63 2729.65 1937.71 2729.65 2973.21"/>
            <g class="st15">
              <polygon class="st7" points="2327.35 2329.11 2001.51 2339.45 2001.51 2013.9 2327.35 2011.3 2327.35 2329.11"/>
              <polygon class="st7" points="2679.78 2055.61 2363.92 2059.3 2363.92 2011.06 2679.78 2008.51 2679.78 2055.61"/>
              <polygon class="st7" points="2679.78 2143.08 2363.92 2148.89 2363.92 2100.65 2679.78 2095.98 2679.78 2143.08"/>
              <polygon class="st7" points="2679.78 2233.91 2363.92 2241.93 2363.92 2193.69 2679.78 2186.81 2679.78 2233.91"/>
              <polygon class="st7" points="2679.78 2318.02 2363.92 2328.07 2363.92 2279.83 2679.78 2270.92 2679.78 2318.02"/>
              <polygon class="st7" points="2679.78 2435.77 2008.16 2463.03 2008.16 2413.51 2679.78 2388.67 2679.78 2435.77"/>
              <polygon class="st7" points="2679.78 2523.24 2008.16 2554.99 2008.16 2505.47 2679.78 2476.14 2679.78 2523.24"/>
              <polygon class="st7" points="2679.78 2610.71 2008.16 2646.94 2008.16 2597.43 2679.78 2563.61 2679.78 2610.71"/>
              <polygon class="st7" points="2679.78 2698.18 2008.16 2738.9 2008.16 2689.39 2679.78 2651.08 2679.78 2698.18"/>
              <polygon class="st7" points="2679.78 2839.48 2008.16 2887.45 2008.16 2837.93 2679.78 2792.38 2679.78 2839.48"/>
              <polygon class="st7" points="2679.78 2926.95 2008.16 2979.41 2008.16 2929.89 2679.78 2879.85 2679.78 2926.95"/>
            </g>
          </g>
          <path class="st8" d="M2751.73,3044.25c-14.66,12.3-32.55,20.67-51.87,22.38l-719.29,63.6c-56.33,4.99-102.07-38.46-102.07-96.03v-1231.22c0-.89.56-2.61.58-3.51,1.42-56.31,47.08-101.69,102.53-100.86l108.97,1.64c-4.34,21.04-9.06,42.31-13.21,68.28-2.15,13.49-4.06,28.21-5.71,43.08-1.91,17.22-3.32,35.42-4.09,53.84-.96,24.07-.73,48.94,1.25,73.57,2.05,25.73,6.02,51.34,12.51,75.86,17.62,66.64,53.8,125.32,120.66,157.61,47.07,22.74,90.37,43.5,128.98,65.77,22.85,13.18,44.1,26.9,63.51,41.92,18.24,14.05,34.86,29.29,49.75,46.25,17.88,20.37,33.25,43.26,45.86,69.76,6.87,14.46,12.92,29.97,18.07,46.74,3.89,12.57,7.27,25.81,10.13,39.86,3.04,14.76,5.52,30.42,7.4,47.02,1.56,13.49,2.7,27.63,3.46,42.44.76,15.04,1.12,30.78,1.03,47.28-.04,12.95-.36,26.38-.94,40.28-.65,15.23-1.63,31.05-2.9,47.51-.8,10.09-1.72,20.42-2.77,30.99-2.43,24.5-3.62,46.6-3.69,66.49-.09,17.34.67,33.01,2.17,47.21,1.56,14.78,3.93,27.96,7.01,39.73,4.8,18.47,11.35,33.49,19.21,45.84,14.23,22.33,32.78,36.07,53.3,45.45,49.72,22.77,110.83,21.21,150.19,61.21Z"/>
        </g>
        <g>
          <g>
            <path class="st13" d="M1504.88,2817.41c0,180.29-140.97,322.11-321.16,316.58-187.51-5.76-345.22-167.71-345.22-361.5s157.71-334.48,345.22-314.95c180.18,18.76,321.16,179.59,321.16,359.88Z"/>
            <path class="st11" d="M1553.57,2801.86c0,180.29-140.97,322.11-321.16,316.58-187.52-5.76-345.22-167.71-345.22-361.5s157.71-334.48,345.22-314.96c180.18,18.76,321.16,179.59,321.16,359.88Z"/>
            <path class="st34" d="M1539.42,2800.91c0,172.35-134.89,307.7-307.01,302.12-178.81-5.79-328.93-160.34-328.93-345s150.13-318.97,328.93-300.65c172.13,17.63,307.01,171.17,307.01,343.52Z"/>
            <path class="st6" d="M1524.52,2799.9c0,151.34-109.36,272.58-254.82,286.17-12.22,1.15-24.74,1.53-37.43,1.11-169.91-5.71-312.4-152.66-312.4-328.03,0-152.49,107.74-268.96,247.58-285.44,20.95-2.47,42.67-2.73,64.81-.47,163.74,16.57,292.26,162.59,292.26,326.66Z"/>
            <path class="st31" d="M1269.7,3086.07c-12.22,1.15-24.74,1.53-37.43,1.11-169.91-5.71-312.4-152.66-312.4-328.03,0-152.49,107.74-268.96,247.58-285.44,47.23,36.88,89.51,84.06,96.79,139.97,11.88,91.13-79.16,133.08-89.21,232.13-8.26,81.72,30.87,172.76,94.66,240.26Z"/>
          </g>
          <path class="st7" d="M1194.14,2974.8c-13.69,0-26.42-7.26-33.5-19.2l-118.8-200.28c-11.12-18.74-5.13-43.07,13.38-54.33,18.5-11.26,42.52-5.2,53.64,13.55l82.47,139.03,109.02-216.88c9.8-19.49,33.34-27.24,52.57-17.32,19.24,9.92,26.9,33.76,17.1,53.24l-141.03,280.55c-6.45,12.83-19.27,21.1-33.47,21.6-.46.02-.92.02-1.37.02Z"/>
        </g>
        <g>
          <path class="st24" d="M1200.23,2412.53c-7.74,0-13.3-6.28-13.3-14.02v-21.02c0-7.74,5.56-14.02,13.3-14.02s13.3,6.28,13.3,14.02v21.02c0,7.74-5.56,14.02-13.3,14.02Z"/>
          <path class="st38" d="M1200.23,2342.44c-7.74,0-13.3-6.28-13.3-14.02v-38.55c0-7.74,5.56-14.02,13.3-14.02s13.3,6.28,13.3,14.02v38.55c0,7.74-5.56,14.02-13.3,14.02ZM1200.23,2254.84c-7.74,0-13.3-6.28-13.3-14.02v-38.55c0-7.74,5.56-14.02,13.3-14.02s13.3,6.28,13.3,14.02v38.55c0,7.74-5.56,14.02-13.3,14.02ZM1200.23,2167.24c-7.74,0-13.3-6.28-13.3-14.02v-38.55c0-7.74,5.56-14.02,13.3-14.02s13.3,6.28,13.3,14.02v38.55c0,7.74-5.56,14.02-13.3,14.02ZM1200.23,2079.63c-7.74,0-13.3-6.28-13.3-14.02v-38.55c0-7.74,5.56-14.02,13.3-14.02s13.3,6.28,13.3,14.02v38.55c0,7.74-5.56,14.02-13.3,14.02Z"/>
          <path class="st5" d="M1200.23,1981.52c-7.74,0-13.3-6.28-13.3-14.02v-21.02c0-7.74,5.56-14.02,13.3-14.02s13.3,6.28,13.3,14.02v21.02c0,7.74-5.56,14.02-13.3,14.02Z"/>
        </g>
        <path class="st3" d="M1581.58,2793.4c-7.16,0-13.27-5.45-13.94-12.73-.71-7.71,4.96-14.53,12.67-15.25l41.87-3.87c7.66-.64,14.53,4.95,15.25,12.67.71,7.71-4.96,14.53-12.67,15.25l-41.87,3.87c-.44.04-.87.06-1.31.06ZM1675.79,2784.69c-7.16,0-13.27-5.46-13.94-12.73-.71-7.71,4.96-14.53,12.67-15.25l41.87-3.87c7.73-.68,14.53,4.96,15.25,12.67.71,7.71-4.96,14.53-12.67,15.25l-41.87,3.87c-.44.04-.88.06-1.31.06ZM1770,2775.98c-7.16,0-13.27-5.46-13.94-12.73-.71-7.71,4.96-14.53,12.67-15.25l41.87-3.87c7.73-.64,14.53,4.96,15.25,12.67.71,7.71-4.96,14.53-12.67,15.25l-41.87,3.87c-.44.04-.88.06-1.31.06ZM1864.21,2767.26c-7.16,0-13.27-5.46-13.94-12.73-.71-7.71,4.96-14.53,12.67-15.25l41.87-3.87c7.74-.66,14.53,4.96,15.25,12.67.71,7.71-4.96,14.53-12.67,15.25l-41.87,3.87c-.44.04-.88.06-1.31.06ZM1958.42,2758.55c-7.16,0-13.27-5.46-13.94-12.73-.71-7.71,4.96-14.53,12.67-15.25l41.87-3.87c7.74-.68,14.53,4.96,15.25,12.67.71,7.71-4.96,14.53-12.67,15.25l-41.87,3.87c-.44.04-.88.06-1.31.06Z"/>
        <path class="st2" d="M2706.37,1620.59c-7.74,0-13.3-6.28-13.3-14.02v-7.01c0-7.74,5.56-14.02,13.3-14.02s13.3,6.28,13.3,14.02v7.01c0,7.74-5.56,14.02-13.3,14.02ZM2706.37,1561.02c-7.74,0-13.3-6.28-13.3-14.02v-42.05c0-7.74,5.56-14.02,13.3-14.02s13.3,6.28,13.3,14.02v42.05c0,7.74-5.56,14.02-13.3,14.02ZM2706.37,1466.41c-7.74,0-13.3-6.28-13.3-14.02v-42.05c0-7.74,5.56-14.02,13.3-14.02s13.3,6.28,13.3,14.02v42.05c0,7.74-5.56,14.02-13.3,14.02ZM2706.37,1371.8c-7.74,0-13.3-6.28-13.3-14.02v-42.05c0-7.74,5.56-14.02,13.3-14.02s13.3,6.28,13.3,14.02v42.05c0,7.74-5.56,14.02-13.3,14.02ZM2706.04,1276.85c-3.56,0-6.41-.51-8.88-3.84h-29.28c-7.74,0-14.02-5.56-14.02-13.3s6.28-13.3,14.02-13.3h38.55c7.74,0,13.25,5.5,13.25,13.25v3.5c0,7.74-5.89,13.69-13.63,13.69ZM2615.32,1273.02h-42.05c-7.74,0-14.02-5.56-14.02-13.3s6.28-13.3,14.02-13.3h42.05c7.74,0,14.02,5.56,14.02,13.3s-6.28,13.3-14.02,13.3ZM2520.71,1273.02h-42.05c-7.74,0-14.02-5.56-14.02-13.3s6.28-13.3,14.02-13.3h42.05c7.74,0,14.02,5.56,14.02,13.3s-6.28,13.3-14.02,13.3Z"/>
        <circle class="st12" cx="1207.52" cy="1941.02" r="55.17"/>
        <circle class="st1" cx="1999.45" cy="2739.96" r="55.17" transform="translate(-896.34 973.72) rotate(-22.5)"/>
        <circle class="st10" cx="2388.41" cy="1264.72" r="55.17"/>
        <circle class="st42" cx="2707.29" cy="1632.65" r="55.17"/>
      </g>
    </g>
  </g>
</svg>