<?xml version="1.0" encoding="UTF-8"?>
<svg id="Layer_1" xmlns="http://www.w3.org/2000/svg" version="1.1" viewBox="0 0 44.88 38.64">
  <!-- Generator: Adobe Illustrator 29.6.1, SVG Export Plug-In . SVG Version: 2.1.1 Build 9)  -->
  <path d="M21.84,17.76c.03.42.65.18,1.1.46,1.24.78.91,3.25-.55,3.57-2.45.53-4,.13-6.29,1.87-2.54,1.92-2.34,3.5-2.95,6.17-.48,2.08-4.02,1.75-4.03-.91-.02-6.33,6.55-11.11,12.48-11.17-.11-.39-.84-.28-1.3-.5-6.79-3.27-2.82-13.57,4.41-11.37s4.56,12.93-2.87,11.88Z"/>
  <path d="M29.69,19.73c1.57-.48,3.63,1.64,4.52,2.83.6.81.84,1.32.41,2.34-.63,1.52-5.28,4.91-6.45,6.51-4.34,1.05-6.51.1-5.43-4.71,1.26-1.02,5.89-6.65,6.95-6.97Z"/>
</svg>