<?xml version="1.0" encoding="UTF-8"?>
<svg id="Layer_1" xmlns="http://www.w3.org/2000/svg" version="1.1" viewBox="0 0 37.2 38.88">
  <!-- Generator: Adobe Illustrator 29.6.1, SVG Export Plug-In . SVG Version: 2.1.1 Build 9)  -->
  <defs>
    <style>
      .st0 {
        fill: #fff;
      }
    </style>
  </defs>
  <path d="M26.16,15.12c1.72-.21,3.12.16,3.79,1.85-.27,4.21.54,9.29.06,13.39-.18,1.54-1.36,2.15-2.76,2.28-3.52.33-10.89.33-14.42,0-1.42-.13-2.58-.76-2.76-2.28-.27-2.31-.34-11.02.02-13.19.32-1.93,2.16-2.25,3.83-2.05-.82-4.98,1.85-9.35,7.3-8.62,4.13.55,5.59,5.01,4.94,8.62ZM23.76,15.12c.18-.53.56-1.92,0-3.48-.15-.43-.42-1.16-1.11-1.77-1.31-1.15-3.53-1.31-4.97-.24-.87.65-1.19,1.54-1.35,2.01-.56,1.57-.17,2.97,0,3.48h7.44ZM19.37,21.41c-2.84.62-2.23,5.43,1.08,4.95,3.29-.48,2.43-5.71-1.08-4.95Z"/>
  <path class="st0" d="M19.37,21.41c3.51-.76,4.37,4.47,1.08,4.95-3.32.48-3.92-4.33-1.08-4.95Z"/>
</svg>