<?xml version="1.0" encoding="UTF-8"?>
<svg id="Layer_1" xmlns="http://www.w3.org/2000/svg" version="1.1" viewBox="0 0 34.08 34.14">
  <!-- Generator: Adobe Illustrator 29.6.1, SVG Export Plug-In . SVG Version: 2.1.1 Build 9)  -->
  <defs>
    <style>
      .st0 {
        fill: #fff;
      }
    </style>
  </defs>
  <path d="M23.28,12.06c1.61-.17,3.17.03,3.59,1.81.02,2.25.04,4.5.06,6.75.09,1.21.3,4.4-.04,6.68-.04.3-.12.75-.45,1.18-.65.84-1.87,1.02-3.03,1.11-3.52.26-9.22.25-12.74,0-1.25-.09-2.58-.23-3.27-1.12-.34-.44-.41-.92-.45-1.17-.35-2.65.1-12.84.14-13.63.08-.29.25-.72.63-1.09,1.08-1.04,2.75-.54,2.83-.52-.72-4.94,2.56-10.11,8.02-8.63,4.03,1.09,4.93,4.9,4.69,8.63ZM20.64,12.06c.17-.53.54-1.91,0-3.48-.17-.5-.51-1.47-1.45-2.15-1.36-.97-3.37-.91-4.67.1-.85.66-1.15,1.55-1.32,2.04-.53,1.56-.17,2.93,0,3.48h7.44ZM24.48,14.46h-15.12v12.48h15.12v-12.48Z"/>
  <path class="st0" d="M24.48,14.46v12.48h-15.12v-12.48h15.12ZM16.01,18.35c-2.02.46-2.09,4.04-.18,4.64,4.56,1.44,4.93-5.72.18-4.64Z"/>
  <path d="M16.01,18.35c4.74-1.08,4.38,6.08-.18,4.64-1.91-.6-1.84-4.18.18-4.64Z"/>
</svg>