<?xml version="1.0" encoding="UTF-8"?>
<svg id="Illustration" xmlns="http://www.w3.org/2000/svg" version="1.1" viewBox="0 0 2500 2500">
  <!-- Generator: Adobe Illustrator 29.6.1, SVG Export Plug-In . SVG Version: 2.1.1 Build 9)  -->
  <defs>
    <style>
      .st0 {
        fill: #efbc73;
      }

      .st1 {
        fill: #363e44;
      }

      .st2 {
        fill: #d87355;
      }

      .st3 {
        fill: #d3bba3;
      }

      .st4 {
        fill: #fff;
      }

      .st5 {
        fill: #f2e6dc;
      }

      .st6 {
        fill: #776e42;
      }

      .st7 {
        fill: #bc8271;
      }

      .st8 {
        fill: #9e9569;
      }

      .st9 {
        fill: #8b865c;
      }

      .st10 {
        fill: #f7f1eb;
      }

      .st11 {
        fill: #e6d0be;
      }
    </style>
  </defs>
  <g id="Big_data_analytics">
    <circle class="st5" cx="1250" cy="1250" r="1109.64"/>
    <g>
      <path class="st3" d="M1074.37,1638.36c-130.25,0-254.5-40.49-359.34-117.09-50.46-36.87-94.85-81.08-131.91-131.41-37.5-50.92-66.7-107-86.78-166.7-.22-.63.13-1.32.76-1.54.63-.21,1.32.13,1.54.76,83.2,247.35,314.57,413.54,575.73,413.54,334.86,0,607.28-272.43,607.28-607.28s-272.43-607.28-607.28-607.28c-240.23,0-458.31,141.97-555.57,361.71-.27.61-.98.9-1.6.62-.61-.27-.89-.98-.62-1.6,47.19-106.6,123.62-197.13,221.04-261.79,99.89-66.31,216.35-101.36,336.76-101.36,82.31,0,162.15,16.12,237.33,47.91,72.61,30.71,137.8,74.67,193.8,130.66,55.99,55.99,99.95,121.2,130.66,193.8,31.8,75.16,47.91,155.02,47.91,237.33s-16.12,162.15-47.91,237.33c-30.71,72.61-74.67,137.8-130.66,193.8-55.99,55.99-121.2,99.95-193.8,130.66-75.16,31.8-155.02,47.91-237.33,47.91h-.01Z"/>
      <path class="st3" d="M1074.37,1556.98c-105.87,0-208.02-31.2-295.39-90.23-85.27-57.6-151.46-137.98-191.42-232.44-.25-.62.02-1.33.64-1.59.62-.27,1.33.02,1.59.64,82.53,195.11,272.73,321.19,484.57,321.19,4.61,0,9.29-.06,13.93-.18.68,0,1.22.51,1.25,1.18.01.67-.51,1.22-1.18,1.25-4.66.12-9.37.18-13.99.18h0Z"/>
      <path class="st3" d="M620.21,762.18c-.21,0-.42-.05-.62-.17-.58-.34-.76-1.08-.42-1.66,45.93-77.74,111.41-142.87,189.39-188.36,80.35-46.87,172.27-71.65,265.83-71.65,1.72,0,3.44,0,5.17.02.67,0,1.21.56,1.2,1.22,0,.67-.52,1.21-1.22,1.2-1.71-.01-3.43-.02-5.14-.02-185.19,0-358.82,99.18-453.12,258.82-.23.39-.63.59-1.04.59h-.01Z"/>
      <path class="st3" d="M1574.09,861.72c-.51,0-.98-.32-1.15-.82-55.86-166.07-190-292.93-358.82-339.36-.64-.18-1.03-.85-.85-1.49.18-.64.85-1.02,1.49-.85,82.99,22.82,160.07,66.35,222.9,125.88,62.64,59.35,110.21,133.7,137.57,215.05.22.63-.13,1.32-.76,1.54-.13.05-.25.06-.39.06h.01Z"/>
      <circle class="st4" cx="601.21" cy="649.84" r="56.99"/>
      <path class="st3" d="M601.22,651.06c-.32,0-.62-.12-.86-.35l-274.18-274.18h-147.82c-.67,0-1.21-.55-1.21-1.21s.55-1.21,1.21-1.21h148.32c.33,0,.63.13.86.35l274.54,274.54c.47.47.47,1.24,0,1.71-.24.24-.55.35-.86.35h.01Z"/>
      <circle class="st4" cx="601.21" cy="649.84" r="56.99"/>
      <g>
        <circle class="st4" cx="330.29" cy="371.72" r="56.99"/>
        <path class="st3" d="M330.31,429.89c-32.09,0-58.2-26.11-58.2-58.2s26.11-58.2,58.2-58.2,58.2,26.11,58.2,58.2-26.11,58.2-58.2,58.2ZM330.31,315.9c-30.75,0-55.77,25.02-55.77,55.77s25.02,55.77,55.77,55.77,55.77-25.02,55.77-55.77-25.02-55.77-55.77-55.77Z"/>
      </g>
      <path class="st3" d="M627.32,1860.65h-354c-.67,0-1.21-.55-1.21-1.21s.55-1.21,1.21-1.21h353.5l248.38-248.38c.47-.47,1.24-.47,1.71,0s.47,1.24,0,1.71l-248.73,248.73c-.23.23-.53.35-.86.35h.01Z"/>
      <circle class="st4" cx="876.06" cy="1610.71" r="56.99"/>
      <circle class="st4" cx="634.33" cy="1859.44" r="56.99"/>
      <circle class="st11" cx="273.33" cy="1859.43" r="56.99"/>
      <path class="st3" d="M574.69,1378.95h-301.43c-.67,0-1.21-.55-1.21-1.21s.55-1.21,1.21-1.21h301.43c.67,0,1.21.55,1.21,1.21s-.55,1.21-1.21,1.21Z"/>
      <circle class="st11" cx="273.27" cy="1377.74" r="56.99"/>
      <circle class="st4" cx="574.75" cy="1377.88" r="56.99"/>
      <path class="st3" d="M1153.1,428.08c-.32,0-.62-.12-.86-.35-.47-.47-.47-1.24,0-1.71l195.59-195.59c.23-.23.53-.35.86-.35h669.82c.67,0,1.21.55,1.21,1.21s-.55,1.21-1.21,1.21h-669.32l-195.24,195.24c-.24.24-.55.35-.86.35h.01Z"/>
      <circle class="st4" cx="1153.12" cy="426.81" r="56.99"/>
      <g>
        <circle class="st5" cx="1353.34" cy="231.27" r="56.99"/>
        <path class="st3" d="M1353.34,289.48c-32.09,0-58.2-26.11-58.2-58.2s26.11-58.2,58.2-58.2,58.2,26.11,58.2,58.2-26.11,58.2-58.2,58.2ZM1353.34,175.49c-30.75,0-55.77,25.02-55.77,55.77s25.02,55.77,55.77,55.77,55.77-25.02,55.77-55.77-25.02-55.77-55.77-55.77Z"/>
      </g>
      <circle class="st11" cx="2018.52" cy="231.27" r="56.99"/>
      <path class="st3" d="M1621.81,594.08c-.32,0-.62-.12-.86-.35-.47-.47-.47-1.24,0-1.71l207.88-207.88c.23-.23.53-.35.86-.35h348.17c.67,0,1.21.55,1.21,1.21s-.55,1.21-1.21,1.21h-347.66l-207.53,207.53c-.24.24-.55.35-.86.35h0Z"/>
      <path class="st3" d="M1661.97,869.75c-.32,0-.62-.12-.86-.35-.47-.47-.47-1.24,0-1.71l225.3-225.3c.23-.23.53-.35.86-.35h373.82c.67,0,1.21.55,1.21,1.21s-.55,1.21-1.21,1.21h-373.32l-224.95,224.95c-.24.24-.55.35-.86.35h.01Z"/>
      <circle class="st11" cx="2264.23" cy="643.36" r="56.99"/>
      <circle class="st4" cx="1661.94" cy="868.63" r="56.99"/>
      <path class="st3" d="M2225.78,1830.9h-509.29c-.33,0-.63-.13-.86-.35l-301.14-301.14c-.47-.47-.47-1.24,0-1.71s1.24-.47,1.71,0l300.79,300.79h508.8c.67,0,1.21.55,1.21,1.21s-.55,1.21-1.21,1.21h0Z"/>
      <circle class="st4" cx="1415.28" cy="1528.64" r="56.99"/>
    </g>
    <path class="st4" d="M718.45,840.39c33.19,0,63.44,12.59,86.24,33.24-.32-5.07-.5-10.17-.5-15.32,0-132.04,107.05-239.09,239.09-239.09s239.09,107.05,239.09,239.09c0,25.65-4.05,50.35-11.53,73.5,9.71-3.82,20.28-5.93,31.35-5.93,47.37,0,85.76,38.39,85.76,85.76s-38.39,85.76-85.76,85.76h-583.73c-70.97,0-128.5-57.53-128.5-128.5s57.53-128.5,128.5-128.5v-.02Z"/>
    <g>
      <g>
        <path class="st4" d="M1599.72,1329.29s-708.43-23.51-715.13,2.47l-208.5,809.94h1143.4l208.49-809.94c6.69-25.99-428.26-2.49-428.26-2.49h0Z"/>
        <polygon class="st11" points="2050.6 1243.95 907.2 1243.95 884.6 1331.79 2028 1331.79 2050.6 1243.95"/>
        <path class="st4" d="M974.12,1288.48c-2.84,11.04-14.08,19.97-25.12,19.97s-17.67-8.95-14.83-19.97c2.84-11.04,14.08-19.97,25.12-19.97s17.68,8.95,14.83,19.97Z"/>
        <path class="st4" d="M1038.67,1288.48c-2.84,11.04-14.08,19.97-25.12,19.97s-17.67-8.95-14.83-19.97c2.84-11.04,14.08-19.97,25.12-19.97s17.67,8.95,14.83,19.97Z"/>
        <path class="st4" d="M1103.21,1288.48c-2.84,11.04-14.08,19.97-25.12,19.97s-17.67-8.95-14.83-19.97c2.84-11.04,14.08-19.97,25.12-19.97s17.67,8.95,14.83,19.97Z"/>
      </g>
      <g>
        <polygon class="st11" points="1568.06 1593.32 880.7 1593.32 888.48 1563.11 1575.83 1563.11 1568.06 1593.32"/>
        <polygon class="st11" points="1860.86 1593.32 1613.83 1593.32 1621.6 1563.11 1868.63 1563.11 1860.86 1593.32"/>
        <polygon class="st11" points="1372.15 1690.92 1173.91 1690.92 1181.7 1660.71 1379.93 1660.71 1372.15 1690.92"/>
        <polygon class="st11" points="1811.34 1690.92 1417.91 1690.92 1425.69 1660.71 1819.12 1660.71 1811.34 1690.92"/>
        <polygon class="st11" points="1296.8 1983.71 1098.57 1983.71 1106.34 1953.51 1304.57 1953.51 1296.8 1983.71"/>
        <polygon class="st11" points="1735.99 1983.71 1342.55 1983.71 1350.33 1953.51 1743.76 1953.51 1735.99 1983.71"/>
        <polygon class="st11" points="1688.63 1788.52 1270.8 1788.52 1278.57 1758.31 1696.4 1758.31 1688.63 1788.52"/>
        <polygon class="st11" points="1468.31 1886.12 1245.68 1886.12 1253.46 1855.91 1476.09 1855.91 1468.31 1886.12"/>
      </g>
      <g>
        <path class="st1" d="M1006.27,1511.11c-.38,0-.74-.17-.97-.49l-37.11-49.98.92-.73,61.65-49.03c.52-.42,1.29-.33,1.7.19s.33,1.29-.19,1.7l-60.73,48.3,35.71,48.1c.4.53.29,1.3-.25,1.7-.22.16-.47.24-.73.24h0Z"/>
        <path class="st1" d="M1086.59,1511.11c-.35,0-.72-.16-.95-.46-.41-.52-.33-1.29.19-1.7l60.73-48.3-35.71-48.08c-.4-.53-.29-1.3.25-1.7.53-.4,1.3-.29,1.7.25l37.11,49.98-.92.73-61.65,49.03c-.22.18-.49.27-.75.27h0Z"/>
        <path class="st1" d="M1026.22,1508.09c-.24,0-.49-.07-.7-.23-.55-.39-.67-1.15-.28-1.7l66.09-92.37c.39-.55,1.15-.67,1.7-.28.55.39.67,1.15.28,1.7l-66.09,92.37c-.24.33-.61.51-.98.51h-.01Z"/>
      </g>
    </g>
    <g>
      <g>
        <path class="st11" d="M1172.08,422.55v623.5c0,44.51,132.31,80.59,295.52,80.59s295.52-36.08,295.52-80.59V422.55h-591.04.01Z"/>
        <path class="st4" d="M1467.6,1127.84c-79.05,0-153.36-8.39-209.28-23.65-56.39-15.38-87.45-36.03-87.45-58.15V421.34h593.47v624.71c0,22.12-31.06,42.77-87.45,58.15-55.92,15.24-130.25,23.65-209.28,23.65h-.01ZM1173.3,423.76v622.28c0,20.63,31.23,40.97,85.67,55.81,55.71,15.2,129.81,23.56,208.65,23.56s152.92-8.37,208.65-23.56c54.44-14.84,85.67-35.18,85.67-55.81V423.76h-588.63Z"/>
        <ellipse class="st4" cx="1467.6" cy="422.43" rx="295.52" ry="80.57"/>
        <path class="st5" d="M1700.36,416.4c0,28.09-117.54,50.86-232.76,50.86s-232.76-22.77-232.76-50.86,117.54-50.86,232.76-50.86,232.76,22.77,232.76,50.86h0Z"/>
        <path class="st4" d="M1467.6,712.1c-79.05,0-153.36-8.39-209.28-23.65-56.39-15.38-87.45-36.03-87.45-58.15,0-.67.55-1.21,1.21-1.21s1.21.55,1.21,1.21c0,20.63,31.23,40.97,85.67,55.81,55.71,15.2,129.81,23.56,208.65,23.56s152.92-8.37,208.65-23.56c54.44-14.84,85.67-35.18,85.67-55.81,0-.67.55-1.21,1.21-1.21s1.21.55,1.21,1.21c0,22.12-31.06,42.77-87.45,58.15-55.92,15.24-130.25,23.65-209.28,23.65h-.02Z"/>
        <path class="st4" d="M1467.6,919.97c-79.05,0-153.36-8.39-209.28-23.65-56.39-15.38-87.45-36.03-87.45-58.15,0-.67.55-1.21,1.21-1.21s1.21.55,1.21,1.21c0,20.63,31.23,40.97,85.67,55.81,55.71,15.2,129.81,23.56,208.65,23.56s152.92-8.37,208.65-23.56c54.44-14.84,85.67-35.18,85.67-55.81,0-.67.55-1.21,1.21-1.21s1.21.55,1.21,1.21c0,22.12-31.06,42.77-87.45,58.15-55.92,15.24-130.25,23.65-209.28,23.65h-.02Z"/>
      </g>
      <g>
        <path class="st11" d="M1526.18,579.1v623.5c0,44.51,132.31,80.59,295.52,80.59s295.52-36.08,295.52-80.59v-623.5h-591.04.01Z"/>
        <path class="st4" d="M1821.7,1284.39c-79.05,0-153.36-8.39-209.28-23.65-56.39-15.38-87.45-36.03-87.45-58.15v-624.71h593.47v624.71c0,22.12-31.06,42.77-87.45,58.15-55.92,15.24-130.25,23.65-209.28,23.65h-.01ZM1527.4,580.31v622.28c0,20.62,31.23,40.97,85.67,55.81,55.71,15.2,129.81,23.56,208.65,23.56s152.92-8.37,208.65-23.56c54.44-14.84,85.67-35.18,85.67-55.81v-622.28h-588.63Z"/>
        <ellipse class="st4" cx="1821.7" cy="578.98" rx="295.52" ry="80.57"/>
        <path class="st5" d="M2054.46,572.95c0,28.09-117.54,50.86-232.76,50.86s-232.76-22.77-232.76-50.86,117.54-50.86,232.76-50.86,232.76,22.77,232.76,50.86h0Z"/>
        <path class="st4" d="M1821.7,868.64c-79.05,0-153.36-8.39-209.28-23.65-56.39-15.38-87.45-36.03-87.45-58.15,0-.67.55-1.21,1.21-1.21s1.21.55,1.21,1.21c0,20.62,31.23,40.97,85.67,55.81,55.71,15.2,129.81,23.56,208.65,23.56s152.94-8.37,208.65-23.56c54.44-14.84,85.67-35.18,85.67-55.81,0-.67.55-1.21,1.21-1.21s1.21.55,1.21,1.21c0,22.12-31.06,42.77-87.45,58.15-55.92,15.24-130.25,23.65-209.28,23.65h-.02Z"/>
        <path class="st4" d="M1821.7,1076.51c-79.05,0-153.36-8.39-209.28-23.65-56.39-15.38-87.45-36.03-87.45-58.15,0-.67.55-1.21,1.21-1.21s1.21.55,1.21,1.21c0,20.62,31.23,40.97,85.67,55.81,55.71,15.2,129.81,23.56,208.65,23.56s152.94-8.37,208.65-23.56c54.44-14.84,85.67-35.18,85.67-55.81,0-.67.55-1.21,1.21-1.21s1.21.55,1.21,1.21c0,22.12-31.06,42.77-87.45,58.15-55.92,15.24-130.25,23.65-209.28,23.65h-.02Z"/>
      </g>
    </g>
    <g>
      <g>
        <path class="st10" d="M2032.24,992.71s-450.89-14.96-455.15,1.58l-132.7,515.49h727.73l132.7-515.49c4.26-16.54-272.57-1.59-272.57-1.59h-.01Z"/>
        <polygon class="st9" points="2319.19 938.39 1591.48 938.39 1577.08 994.3 2304.81 994.3 2319.19 938.39"/>
        <path class="st4" d="M1634.07,966.73c-1.81,7.02-8.96,12.71-15.98,12.71s-11.25-5.69-9.45-12.71c1.81-7.02,8.96-12.71,15.98-12.71s11.25,5.69,9.45,12.71h0Z"/>
        <path class="st4" d="M1675.14,966.73c-1.81,7.02-8.96,12.71-15.98,12.71s-11.25-5.69-9.45-12.71,8.96-12.71,15.98-12.71,11.25,5.69,9.45,12.71h0Z"/>
        <path class="st4" d="M1716.23,966.73c-1.81,7.02-8.96,12.71-15.98,12.71s-11.25-5.69-9.45-12.71,8.96-12.71,15.98-12.71,11.25,5.69,9.45,12.71h0Z"/>
      </g>
      <g>
        <polygon class="st9" points="2012.09 1160.76 1574.61 1160.76 1579.56 1141.53 2017.03 1141.53 2012.09 1160.76"/>
        <polygon class="st8" points="2198.43 1160.76 2041.21 1160.76 2046.16 1141.53 2203.38 1141.53 2198.43 1160.76"/>
        <polygon class="st6" points="1887.39 1222.87 1761.23 1222.87 1766.18 1203.65 1892.34 1203.65 1887.39 1222.87"/>
        <polygon class="st9" points="2166.93 1222.87 1916.52 1222.87 1921.47 1203.65 2171.87 1203.65 2166.93 1222.87"/>
        <polygon class="st8" points="1839.43 1409.23 1713.27 1409.23 1718.22 1390 1844.38 1390 1839.43 1409.23"/>
        <polygon class="st6" points="2118.96 1409.23 1868.56 1409.23 1873.51 1390 2123.91 1390 2118.96 1409.23"/>
        <polygon class="st8" points="2088.81 1284.99 1822.89 1284.99 1827.84 1265.77 2093.76 1265.77 2088.81 1284.99"/>
        <polygon class="st9" points="1948.6 1347.1 1806.9 1347.1 1811.85 1327.88 1953.55 1327.88 1948.6 1347.1"/>
      </g>
      <g>
        <path class="st1" d="M1654.53,1108.88c-.38,0-.74-.17-.97-.49l-23.88-32.15,40.15-31.94c.52-.41,1.29-.33,1.7.19s.33,1.29-.19,1.7l-38.32,30.48,22.47,30.27c.4.53.29,1.3-.25,1.7-.22.16-.47.24-.73.24h.02Z"/>
        <path class="st1" d="M1705.64,1108.88c-.35,0-.72-.16-.95-.46-.41-.52-.33-1.29.19-1.7l38.32-30.48-22.47-30.27c-.4-.53-.29-1.3.25-1.7.55-.4,1.3-.29,1.7.25l23.88,32.15-40.17,31.94c-.22.18-.49.27-.75.27h-.01Z"/>
        <path class="st1" d="M1667.22,1106.95c-.24,0-.49-.07-.7-.23-.55-.39-.67-1.15-.28-1.7l42.07-58.79c.39-.55,1.14-.67,1.7-.28.55.39.67,1.15.28,1.7l-42.07,58.79c-.24.33-.61.51-.98.51h-.01Z"/>
      </g>
    </g>
    <g>
      <g>
        <path class="st1" d="M997.11,1203.01c-.33,0-.67,0-.99-.02-13.96-.78-24.4-17.73-23.28-37.78.53-9.63,3.63-18.55,8.7-25.13,5.18-6.71,11.8-10.22,18.65-9.81,6.85.39,13.04,4.58,17.44,11.82,4.31,7.11,6.38,16.31,5.85,25.94-1.09,19.57-12.81,34.97-26.35,34.97ZM999.17,1132.66c-5.72,0-11.27,3.13-15.72,8.9-4.78,6.2-7.69,14.64-8.2,23.78-1.04,18.71,8.37,34.51,20.99,35.22.29.01.58.02.87.02,12.26,0,22.9-14.41,23.91-32.68.51-9.14-1.44-17.86-5.49-24.56-3.97-6.54-9.47-10.33-15.5-10.66-.29-.01-.58-.02-.87-.02Z"/>
        <path class="st7" d="M990.48,1159.91c3.12-54.81.1-87.04-22.31-111.92-30.12-33.43-79.47-28.85-84.61-28.29-3.29.35-50.28,2.6-74.98,42.98-24.4,39.87-26.83,91.28-3.67,131.41l-40.15,95.15c-12.89,30.55,1.42,65.77,31.97,78.66l6.92,2.92c30.55,12.89,65.77-1.42,78.66-31.97l26.83-63.57c20.06,6.56,37.76,7.41,48.05.18,18.42-12.94,29.64-51.01,33.3-115.56h.01Z"/>
        <path class="st1" d="M1065.15,992.92c-12.09-2.92-24.18-5.85-36.27-8.76-1.04,4.34-2.49,8.96-4.5,13.75-.74,1.75-1.52,3.43-2.3,5.04-1.32,2.67-4.33,4.06-7.23,3.35s-4.91-3.36-4.83-6.34v-.42c.18-7.71-.64-14.56-1.81-20.35-44.22-10.68-88.42-21.36-132.64-32.04,1.1,5.08,3.36,18.72-3.25,33.57-9.96,22.39-31.93,29.23-35.31,30.22-40.12,18.11-67.12,55.85-69.72,97.95-3.13,50.72,30.62,84.34,35.81,89.35,9.4,2.47,19.08,4.88,29.01,7.14,19.04,4.37,37.44,7.94,55.09,10.88-13.17-11.5-15.66-28.8-11.25-44.05,4.83-16.7,24.06-29.52,40.84-23.16,10.66,4.04,17,13.18,17.43,33.74,7.57-.69,16.71-1.99,24.28-2.68-1.37-19.74-2.74-39.49-4.11-59.23,3.1-.17,74.51-5.36,102.32-63.09,12.93-26.85,10.48-52.7,8.44-64.86v-.02Z"/>
        <path class="st1" d="M932.9,1170.58c-.59,0-1.12-.44-1.2-1.04-.1-.67.36-1.27,1.03-1.37l87.97-12.27c.65-.1,1.27.36,1.37,1.03.1.67-.36,1.27-1.03,1.37l-87.97,12.27h-.17Z"/>
        <path class="st1" d="M910.62,1275.36c-.15,0-.29-.02-.44-.08-.62-.24-.93-.95-.69-1.58l9.2-23.53c.24-.62.95-.93,1.58-.69.62.24.93.95.69,1.58l-9.2,23.53c-.18.47-.64.78-1.13.78h-.01Z"/>
        <path class="st1" d="M908.27,1192.38c-.5,0-.97-.3-1.14-.8-1.42-4-2.64-7.63-3.93-11.47-1.06-3.13-2.13-6.35-3.38-9.94-.22-.63.11-1.32.75-1.54.63-.22,1.32.11,1.54.75,1.25,3.6,2.34,6.84,3.4,9.97,1.29,3.83,2.5,7.45,3.92,11.44.22.63-.11,1.32-.74,1.55-.13.05-.27.07-.4.07v-.02Z"/>
      </g>
      <path class="st1" d="M281.96,2153s-25.69,133.61,40.92,196.17h1213.6s142.4-340-603.58-311.8l-650.94,115.62h0Z"/>
      <g>
        <g>
          <path class="st7" d="M276.37,1652.39c-8.57,1.84-45.53,89.39-82.6,182.5-42.4,106.49,35.64,222.3,150.26,223.12l37.92.27,156.51-431.52-262.09,25.62h0Z"/>
          <path class="st9" d="M402.93,1665.25h-187.09l91.48-184.16c45.72-92.05,139.62-150.26,242.4-150.26h285.63l-432.41,334.42h-.01Z"/>
        </g>
        <g>
          <path class="st7" d="M1218.58,1430.04c105.7,42.77,202.84,67.35,271.15,116.72,84.59,61.12,118.3,152.63,79.81,193.57-40.37,42.93-200.56,74.28-414.64-22.73,4.97-87.57,10.99-199.89,63.69-287.57h-.01Z"/>
          <path class="st7" d="M1398.96,1546.15c25.81-60.54,90.54-195.79,145.87-296.19,58.1-105.43,159.23-252.66,179.64-238.24,11.63,8.21,1.99,31.14-27.86,90.71,4.52-1.5,18.42-3.33,27.95,6.05,14.12,13.89,6.95,29.03,6.84,30.65,1.49-.63,17.75-7.02,28.77.68,12.41,8.67,15.41,21.45,13.01,33.1,3.75-1.46,18.13-5.43,28.5,2.28,10.67,7.93,16.06,23.95,9.18,35.99-12.61,22.1-51.33,87.06-66.32,120.98-29.51,66.74-102.47,317.79-170.61,402.97-50.05-80.05-124.91-108.9-174.96-188.97h-.01Z"/>
          <path class="st1" d="M1659.21,1127.14c-.27,0-.52-.08-.75-.25l-15.86-12.44c-.52-.41-.62-1.18-.21-1.7.41-.53,1.18-.62,1.7-.21l15.86,12.44c.52.41.62,1.18.21,1.7-.24.3-.59.46-.96.46h.01Z"/>
          <path class="st1" d="M1699.49,1158.67c-.27,0-.52-.08-.75-.25l-15.86-12.44c-.52-.41-.62-1.18-.21-1.7s1.18-.62,1.7-.21l15.86,12.44c.52.41.62,1.18.21,1.7-.24.3-.59.46-.96.46h.01Z"/>
          <path class="st1" d="M1740.86,1190.31c-.27,0-.52-.08-.75-.25l-15.86-12.44c-.52-.41-.62-1.18-.21-1.7.41-.53,1.18-.62,1.7-.21l15.86,12.44c.52.41.62,1.18.21,1.7-.24.3-.59.46-.96.46h.01Z"/>
          <path class="st1" d="M1777.79,1219.79c-.27,0-.52-.08-.75-.25l-15.86-12.44c-.52-.41-.62-1.18-.21-1.7s1.18-.62,1.7-.21l15.86,12.44c.52.41.62,1.18.21,1.7-.24.3-.59.46-.96.46h.01Z"/>
        </g>
        <g>
          <path class="st9" d="M726.41,1330.83c305-7.22,557.44,108.31,557.44,108.31l-29.2,331.63-129.62,2.4-78.94,266.59-95.9-2.74-63.62,168.47-670.74,7.6,127.44-452.49s65.91-422.27,383.12-429.78h.01Z"/>
          <path class="st1" d="M1126.31,1772.26c-.64,0-1.19-.51-1.21-1.16-.45-10.84-.68-24.18-.9-37.07-.22-12.89-.45-26.21-.9-37.02-.02-.67.5-1.24,1.16-1.26.65-.01,1.24.5,1.26,1.16.45,10.84.68,24.18.9,37.07.22,12.89.45,26.21.9,37.02.02.67-.5,1.24-1.16,1.26h-.05Z"/>
          <path class="st1" d="M367.13,1653.61c-.11,0-.23-.01-.34-.05-.64-.18-1.01-.86-.82-1.5l36.38-124.78c.18-.64.85-1.02,1.5-.82.64.18,1.01.86.82,1.5l-36.38,124.78c-.16.53-.64.87-1.16.87h0Z"/>
        </g>
        <g>
          <path class="st0" d="M544.32,1327.72s33.75-54.62,106.56-54.83c72.81-.21,340.43,56.74,340.43,56.74l12.14,30.2s-212.47,125.4-365.1,143.45c-152.63,18.06-151.48-125.65-94.05-175.58h.01Z"/>
          <path class="st1" d="M703.31,1393.56c-30.74,0-50.83-5.85-63.93-13.33-19.38-11.06-22.02-24.93-22.13-25.52-.12-.65.33-1.29.98-1.41.67-.12,1.29.33,1.41.98.02.13,2.64,13.45,21.1,23.93,31.94,18.13,106,26.27,277.45-37.9.63-.23,1.32.08,1.56.72.23.63-.08,1.32-.72,1.56-102.6,38.39-170.63,50.97-215.72,50.97h0Z"/>
        </g>
      </g>
    </g>
    <g>
      <g>
        <path class="st1" d="M2342.05,2024.65h-719.83c-.67,0-1.21-.55-1.21-1.21v-145.99c0-.67.55-1.21,1.21-1.21h719.83c.67,0,1.21.55,1.21,1.21v145.99c0,.67-.55,1.21-1.21,1.21ZM1623.43,2022.22h717.41v-143.56h-717.41v143.56h0Z"/>
        <rect class="st2" x="1666.07" y="1896.55" width="219.24" height="105.81"/>
        <path class="st1" d="M1913.85,2003.78c-.67,0-1.21-.55-1.21-1.21v-29.76c0-.67.55-1.21,1.21-1.21s1.21.55,1.21,1.21v29.76c0,.67-.55,1.21-1.21,1.21Z"/>
        <path class="st1" d="M1913.85,1944.72c-.67,0-1.21-.55-1.21-1.21v-46.94c0-.67.55-1.21,1.21-1.21s1.21.55,1.21,1.21v46.94c0,.67-.55,1.21-1.21,1.21Z"/>
        <path class="st1" d="M1947.96,2003.78c-.67,0-1.21-.55-1.21-1.21v-53.11c0-.67.55-1.21,1.21-1.21s1.21.55,1.21,1.21v53.11c0,.67-.55,1.21-1.21,1.21Z"/>
        <path class="st1" d="M1947.96,1917.86c-.67,0-1.21-.55-1.21-1.21v-20.08c0-.67.55-1.21,1.21-1.21s1.21.55,1.21,1.21v20.08c0,.67-.55,1.21-1.21,1.21Z"/>
        <path class="st1" d="M1982.06,2003.78c-.67,0-1.21-.55-1.21-1.21v-29.76c0-.67.55-1.21,1.21-1.21s1.21.55,1.21,1.21v29.76c0,.67-.55,1.21-1.21,1.21Z"/>
        <path class="st1" d="M1982.06,1933.23c-.67,0-1.21-.55-1.21-1.21v-35.46c0-.67.55-1.21,1.21-1.21s1.21.55,1.21,1.21v35.46c0,.67-.55,1.21-1.21,1.21Z"/>
        <path class="st1" d="M2016.16,2003.78c-.67,0-1.21-.55-1.21-1.21v-59.06c0-.67.55-1.21,1.21-1.21s1.21.55,1.21,1.21v59.06c0,.67-.55,1.21-1.21,1.21Z"/>
        <path class="st1" d="M2016.16,1921.24c-.67,0-1.21-.55-1.21-1.21v-23.48c0-.67.55-1.21,1.21-1.21s1.21.55,1.21,1.21v23.48c0,.67-.55,1.21-1.21,1.21Z"/>
        <path class="st1" d="M2050.26,2003.78c-.67,0-1.21-.55-1.21-1.21v-20.31c0-.67.55-1.21,1.21-1.21s1.21.55,1.21,1.21v20.31c0,.67-.55,1.21-1.21,1.21Z"/>
        <path class="st1" d="M2050.26,1944.72c-.67,0-1.21-.55-1.21-1.21v-46.94c0-.67.55-1.21,1.21-1.21s1.21.55,1.21,1.21v46.94c0,.67-.55,1.21-1.21,1.21Z"/>
        <path class="st1" d="M2084.36,2003.78c-.67,0-1.21-.55-1.21-1.21v-62.9c0-.67.55-1.21,1.21-1.21s1.21.55,1.21,1.21v62.9c0,.67-.55,1.21-1.21,1.21Z"/>
        <path class="st1" d="M2084.36,1917.86c-.67,0-1.21-.55-1.21-1.21v-20.08c0-.67.55-1.21,1.21-1.21s1.21.55,1.21,1.21v20.08c0,.67-.55,1.21-1.21,1.21Z"/>
      </g>
      <g>
        <path class="st1" d="M2342.05,2184.41h-719.83c-.67,0-1.21-.55-1.21-1.21v-145.99c0-.67.55-1.21,1.21-1.21h719.83c.67,0,1.21.55,1.21,1.21v145.99c0,.67-.55,1.21-1.21,1.21ZM1623.43,2181.99h717.41v-143.56h-717.41v143.56h0Z"/>
        <rect class="st2" x="1666.07" y="2056.31" width="219.24" height="105.81"/>
        <path class="st1" d="M1913.85,2163.54c-.67,0-1.21-.55-1.21-1.21v-29.76c0-.67.55-1.21,1.21-1.21s1.21.55,1.21,1.21v29.76c0,.67-.55,1.21-1.21,1.21Z"/>
        <path class="st1" d="M1913.85,2104.48c-.67,0-1.21-.55-1.21-1.21v-46.94c0-.67.55-1.21,1.21-1.21s1.21.55,1.21,1.21v46.94c0,.67-.55,1.21-1.21,1.21Z"/>
        <path class="st1" d="M1947.96,2163.54c-.67,0-1.21-.55-1.21-1.21v-53.11c0-.67.55-1.21,1.21-1.21s1.21.55,1.21,1.21v53.11c0,.67-.55,1.21-1.21,1.21Z"/>
        <path class="st1" d="M1947.96,2077.62c-.67,0-1.21-.55-1.21-1.21v-20.08c0-.67.55-1.21,1.21-1.21s1.21.55,1.21,1.21v20.08c0,.67-.55,1.21-1.21,1.21Z"/>
        <path class="st1" d="M1982.06,2163.54c-.67,0-1.21-.55-1.21-1.21v-29.76c0-.67.55-1.21,1.21-1.21s1.21.55,1.21,1.21v29.76c0,.67-.55,1.21-1.21,1.21Z"/>
        <path class="st1" d="M1982.06,2093c-.67,0-1.21-.55-1.21-1.21v-35.46c0-.67.55-1.21,1.21-1.21s1.21.55,1.21,1.21v35.46c0,.67-.55,1.21-1.21,1.21Z"/>
        <path class="st1" d="M2016.16,2163.54c-.67,0-1.21-.55-1.21-1.21v-59.06c0-.67.55-1.21,1.21-1.21s1.21.55,1.21,1.21v59.06c0,.67-.55,1.21-1.21,1.21Z"/>
        <path class="st1" d="M2016.16,2081c-.67,0-1.21-.55-1.21-1.21v-23.48c0-.67.55-1.21,1.21-1.21s1.21.55,1.21,1.21v23.48c0,.67-.55,1.21-1.21,1.21Z"/>
        <path class="st1" d="M2050.26,2163.54c-.67,0-1.21-.55-1.21-1.21v-20.31c0-.67.55-1.21,1.21-1.21s1.21.55,1.21,1.21v20.31c0,.67-.55,1.21-1.21,1.21Z"/>
        <path class="st1" d="M2050.26,2104.48c-.67,0-1.21-.55-1.21-1.21v-46.94c0-.67.55-1.21,1.21-1.21s1.21.55,1.21,1.21v46.94c0,.67-.55,1.21-1.21,1.21Z"/>
        <path class="st1" d="M2084.36,2163.54c-.67,0-1.21-.55-1.21-1.21v-62.92c0-.67.55-1.21,1.21-1.21s1.21.55,1.21,1.21v62.92c0,.67-.55,1.21-1.21,1.21Z"/>
        <path class="st1" d="M2084.36,2077.62c-.67,0-1.21-.55-1.21-1.21v-20.08c0-.67.55-1.21,1.21-1.21s1.21.55,1.21,1.21v20.08c0,.67-.55,1.21-1.21,1.21Z"/>
      </g>
      <g>
        <path class="st1" d="M2342.05,2344.18h-719.83c-.67,0-1.21-.55-1.21-1.21v-145.99c0-.67.55-1.21,1.21-1.21h719.83c.67,0,1.21.55,1.21,1.21v145.99c0,.67-.55,1.21-1.21,1.21ZM1623.43,2341.75h717.41v-143.56h-717.41v143.56h0Z"/>
        <rect class="st2" x="1666.07" y="2216.08" width="219.24" height="105.8"/>
        <path class="st1" d="M1913.85,2323.31c-.67,0-1.21-.55-1.21-1.21v-29.76c0-.67.55-1.21,1.21-1.21s1.21.55,1.21,1.21v29.76c0,.67-.55,1.21-1.21,1.21Z"/>
        <path class="st1" d="M1913.85,2264.25c-.67,0-1.21-.55-1.21-1.21v-46.94c0-.67.55-1.21,1.21-1.21s1.21.55,1.21,1.21v46.94c0,.67-.55,1.21-1.21,1.21Z"/>
        <path class="st1" d="M1947.96,2323.31c-.67,0-1.21-.55-1.21-1.21v-53.11c0-.67.55-1.21,1.21-1.21s1.21.55,1.21,1.21v53.11c0,.67-.55,1.21-1.21,1.21Z"/>
        <path class="st1" d="M1947.96,2237.38c-.67,0-1.21-.55-1.21-1.21v-20.08c0-.67.55-1.21,1.21-1.21s1.21.55,1.21,1.21v20.08c0,.67-.55,1.21-1.21,1.21Z"/>
        <path class="st1" d="M1982.06,2323.31c-.67,0-1.21-.55-1.21-1.21v-29.76c0-.67.55-1.21,1.21-1.21s1.21.55,1.21,1.21v29.76c0,.67-.55,1.21-1.21,1.21Z"/>
        <path class="st1" d="M1982.06,2252.76c-.67,0-1.21-.55-1.21-1.21v-35.46c0-.67.55-1.21,1.21-1.21s1.21.55,1.21,1.21v35.46c0,.67-.55,1.21-1.21,1.21Z"/>
        <path class="st1" d="M2016.16,2323.31c-.67,0-1.21-.55-1.21-1.21v-59.06c0-.67.55-1.21,1.21-1.21s1.21.55,1.21,1.21v59.06c0,.67-.55,1.21-1.21,1.21Z"/>
        <path class="st1" d="M2016.16,2240.77c-.67,0-1.21-.55-1.21-1.21v-23.48c0-.67.55-1.21,1.21-1.21s1.21.55,1.21,1.21v23.48c0,.67-.55,1.21-1.21,1.21Z"/>
        <path class="st1" d="M2050.26,2323.31c-.67,0-1.21-.55-1.21-1.21v-20.31c0-.67.55-1.21,1.21-1.21s1.21.55,1.21,1.21v20.31c0,.67-.55,1.21-1.21,1.21Z"/>
        <path class="st1" d="M2050.26,2264.25c-.67,0-1.21-.55-1.21-1.21v-46.94c0-.67.55-1.21,1.21-1.21s1.21.55,1.21,1.21v46.94c0,.67-.55,1.21-1.21,1.21Z"/>
        <path class="st1" d="M2084.36,2323.31c-.67,0-1.21-.55-1.21-1.21v-62.92c0-.67.55-1.21,1.21-1.21s1.21.55,1.21,1.21v62.92c0,.67-.55,1.21-1.21,1.21Z"/>
        <path class="st1" d="M2084.36,2237.38c-.67,0-1.21-.55-1.21-1.21v-20.08c0-.67.55-1.21,1.21-1.21s1.21.55,1.21,1.21v20.08c0,.67-.55,1.21-1.21,1.21Z"/>
      </g>
    </g>
  </g>
</svg>